<?xml version="1.0" standalone="no"?>
<!DOCTYPE svg PUBLIC "-//W3C//DTD SVG 20010904//EN"
 "http://www.w3.org/TR/2001/REC-SVG-20010904/DTD/svg10.dtd">
<svg version="1.0" xmlns="http://www.w3.org/2000/svg"
 width="1522.000000pt" height="1522.000000pt" viewBox="0 0 1522.000000 1522.000000"
 preserveAspectRatio="xMidYMid meet">
<metadata>
Created by potrace 1.14, written by Peter Selinger 2001-2017
</metadata>
<g transform="translate(0.000000,1522.000000) scale(0.100000,-0.100000)"
fill="#000000" stroke="none">
<path d="M7125 15209 c-49 -5 -164 -16 -255 -25 -1876 -176 -3655 -1083 -4932
-2514 -1111 -1246 -1784 -2823 -1908 -4475 -32 -436 -32 -734 1 -1165 194
-2544 1670 -4831 3922 -6079 931 -515 1963 -827 3027 -915 563 -47 998 -38
1565 30 1407 170 2739 739 3860 1646 409 332 878 810 1203 1226 905 1163 1462
2565 1582 3987 6 72 15 174 20 228 13 127 13 797 0 924 -5 54 -14 157 -20 228
-70 826 -300 1691 -658 2470 -598 1304 -1575 2434 -2780 3219 -812 528 -1706
892 -2652 1080 -332 66 -500 89 -1011 135 -135 13 -833 12 -964 0z m1135 -153
c1573 -148 2973 -733 4176 -1746 921 -775 1667 -1809 2114 -2930 487 -1221
642 -2532 454 -3840 -258 -1801 -1188 -3463 -2599 -4645 -1088 -912 -2393
-1491 -3789 -1680 -371 -50 -522 -59 -986 -60 -459 0 -591 7 -940 51 -1933
242 -3681 1224 -4912 2761 -890 1110 -1452 2484 -1592 3893 -49 489 -49 1022
-1 1505 136 1352 642 2640 1465 3733 980 1301 2358 2250 3915 2697 533 153
1067 242 1660 279 160 10 870 -3 1035 -18z"/>
<path d="M7720 14782 c0 -7 15 -12 35 -12 l35 0 0 -127 c0 -71 -3 -226 -7
-345 l-6 -218 -34 0 c-18 0 -33 -4 -33 -10 0 -6 56 -10 148 -11 81 0 159 -3
175 -5 15 -3 27 0 27 6 0 5 -16 10 -37 10 l-36 0 6 218 c4 119 7 274 7 345 l0
127 35 0 c19 0 35 5 35 10 0 6 -24 10 -53 10 -30 0 -109 3 -175 7 -89 4 -122
3 -122 -5z"/>
<path d="M6885 14753 c-85 -11 -361 -43 -368 -43 -5 0 -5 -5 -2 -10 4 -6 21
-8 39 -5 l32 6 38 -318 c21 -175 40 -330 43 -345 5 -26 3 -28 -25 -28 -17 0
-34 -4 -37 -10 -9 -14 6 -13 220 14 196 26 249 39 321 81 110 64 162 193 143
348 -22 174 -119 280 -280 307 -65 10 -70 10 -124 3z m72 -49 c80 -59 124
-206 125 -416 1 -82 -3 -103 -23 -145 -13 -26 -39 -58 -57 -70 -33 -22 -108
-40 -120 -29 -9 9 -89 675 -83 682 14 14 132 -3 158 -22z"/>
<path d="M8775 14696 c-106 -34 -196 -112 -240 -209 -129 -283 89 -578 395
-536 36 5 71 11 77 14 19 7 43 -5 43 -21 0 -8 4 -14 9 -14 5 0 15 33 21 73 7
39 15 89 20 110 9 44 -13 54 -24 10 -12 -46 -65 -112 -109 -135 -54 -28 -141
-29 -187 -2 -78 46 -93 109 -66 292 24 162 61 298 91 338 49 65 122 81 200 45
71 -33 111 -97 124 -196 3 -27 10 -49 16 -48 9 2 42 159 44 207 1 18 0 18 -17
3 -24 -22 -27 -22 -83 13 -104 64 -223 85 -314 56z"/>
<path d="M5713 14527 c-144 -40 -265 -76 -270 -81 -5 -5 8 -6 29 -2 44 8 29
44 133 -344 42 -157 78 -292 81 -301 3 -13 -4 -18 -31 -23 -19 -4 -35 -12 -35
-18 0 -6 8 -8 18 -6 9 3 141 38 292 78 151 41 277 75 279 76 7 6 -51 204 -60
204 -5 0 -9 -23 -9 -50 0 -103 -53 -165 -171 -201 -38 -12 -73 -19 -76 -16 -6
6 -94 329 -90 333 1 1 30 8 64 15 79 16 121 0 148 -58 30 -63 28 -21 -5 104
-37 136 -50 159 -50 86 0 -60 -26 -93 -88 -111 -78 -23 -75 -27 -117 131 -20
78 -38 146 -39 151 -2 15 72 37 139 43 75 5 118 -15 158 -75 16 -24 31 -42 33
-40 9 10 -44 173 -57 175 -8 1 -132 -31 -276 -70z"/>
<path d="M9680 14152 c-183 -252 -219 -297 -243 -300 -15 -2 -27 -7 -27 -12 0
-7 112 -50 132 -50 17 0 7 17 -17 28 -14 6 -25 18 -25 26 0 11 76 132 100 159
5 5 47 -4 94 -19 l86 -28 0 -91 c0 -49 3 -100 6 -113 6 -21 4 -22 -20 -16 -14
3 -26 2 -26 -3 0 -4 63 -29 140 -55 77 -25 140 -42 140 -38 0 5 -7 13 -15 18
-14 7 -17 62 -25 383 -5 206 -10 377 -10 380 0 4 -11 10 -24 13 -13 3 -30 8
-38 11 -8 3 -90 -101 -228 -293z m97 -168 c-8 -8 -147 38 -147 49 0 5 30 50
68 101 l67 92 9 -119 c4 -65 6 -120 3 -123z"/>
<path d="M4865 14225 c-90 -40 -121 -59 -123 -74 -2 -11 6 -115 18 -232 11
-116 19 -214 16 -216 -2 -2 -77 73 -167 166 l-164 170 -120 -54 c-66 -29 -121
-59 -124 -66 -2 -8 2 -10 15 -4 11 4 26 9 34 12 11 3 47 -68 143 -284 70 -158
127 -300 127 -314 0 -15 -7 -32 -15 -39 -34 -28 -11 -27 53 1 86 39 100 52 45
43 -39 -6 -42 -5 -59 27 -21 40 -212 463 -225 499 -5 14 99 -85 230 -219 245
-251 271 -271 271 -203 0 35 -47 581 -55 637 -3 21 -3 36 1 32 6 -6 232 -507
255 -565 8 -20 5 -24 -21 -34 -33 -11 -42 -33 -10 -23 40 13 285 127 295 137
7 8 2 9 -15 4 -14 -4 -31 -8 -38 -9 -10 -2 -159 316 -277 591 -14 33 -14 33
15 44 17 5 30 14 30 19 0 14 -7 12 -135 -46z"/>
<path d="M10632 14137 c9 -7 24 -17 34 -23 16 -9 2 -40 -137 -312 -126 -248
-157 -302 -171 -297 -57 17 -63 17 -53 7 12 -13 518 -272 531 -272 5 0 31 43
57 95 26 52 44 95 40 95 -3 0 -27 -20 -53 -44 -51 -48 -94 -62 -159 -53 -38 5
-161 55 -161 65 0 8 301 596 310 605 4 5 18 4 29 -3 12 -6 27 -9 34 -7 13 4
-285 157 -305 157 -8 -1 -7 -5 4 -13z"/>
<path d="M7285 13660 c-1101 -71 -2121 -420 -3046 -1041 -300 -201 -608 -458
-900 -749 -505 -504 -851 -979 -1169 -1605 -793 -1562 -860 -3397 -183 -4990
315 -741 757 -1384 1345 -1960 852 -835 1919 -1406 3073 -1644 801 -166 1612
-173 2405 -20 1732 335 3251 1414 4145 2943 696 1193 958 2598 734 3946 -211
1272 -819 2433 -1755 3351 -1045 1023 -2366 1632 -3819 1759 -168 15 -662 20
-830 10z m487 -137 l98 -6 -7 -26 c-7 -31 -20 -41 -54 -41 -23 0 -28 -6 -41
-52 -9 -29 -14 -55 -12 -57 2 -2 21 6 44 18 49 25 50 25 50 5 0 -8 16 -22 35
-30 22 -9 37 -23 41 -39 3 -14 9 -25 12 -25 3 0 44 37 91 83 102 98 176 151
198 143 11 -5 -3 -20 -53 -55 -101 -70 -234 -211 -329 -346 -64 -91 -63 -95 1
-35 138 129 339 253 539 332 126 49 215 71 215 51 0 -5 -24 -15 -52 -23 -160
-40 -428 -175 -578 -291 -74 -57 -198 -169 -188 -169 3 0 42 20 86 44 85 47
206 102 260 118 18 5 54 23 79 41 42 28 54 31 110 29 63 -2 167 24 228 56 22
12 62 16 150 17 216 3 550 18 555 25 3 4 52 -7 110 -24 l105 -31 -50 -6 c-88
-11 -95 -15 -95 -60 0 -44 -1 -43 34 -29 21 8 28 5 46 -17 19 -25 21 -25 40
-8 19 17 21 17 54 -8 l34 -26 26 20 25 20 68 -34 c37 -19 82 -37 98 -41 17 -4
37 -15 45 -25 10 -12 49 -24 115 -36 179 -32 373 -84 433 -115 31 -17 48 -28
37 -26 -11 3 -69 19 -130 35 -60 17 -138 37 -172 45 l-63 14 0 -27 c0 -27 1
-28 54 -23 49 4 64 0 158 -45 75 -37 120 -52 167 -56 116 -12 153 -53 90 -98
l-32 -22 -18 22 c-10 12 -27 35 -38 49 l-20 27 -1 -50 c-2 -49 -2 -49 -14 -21
l-13 28 -20 -26 c-27 -34 -33 -33 -33 8 l0 35 -60 -25 c-76 -31 -116 -31 -141
-1 l-18 22 -1 -32 c0 -31 3 -33 58 -49 147 -41 421 -129 552 -178 80 -30 146
-53 147 -52 6 6 -30 125 -48 160 -23 44 -21 51 7 32 12 -9 29 -45 43 -93 13
-43 26 -86 30 -96 4 -11 49 -37 116 -66 263 -114 542 -266 590 -322 l20 -23
-35 21 c-121 71 -193 110 -335 181 -88 44 -190 92 -225 107 -36 15 -80 34 -97
42 l-33 13 0 -85 c0 -55 4 -85 11 -85 6 0 22 -9 36 -20 23 -18 41 -20 160 -20
156 0 179 -7 253 -76 l50 -47 44 13 c42 12 45 11 88 -22 24 -19 64 -42 88 -51
53 -20 85 -62 124 -159 14 -36 26 -69 26 -71 0 -3 -34 -3 -75 0 -60 5 -75 3
-75 -8 0 -8 -3 -30 -6 -51 l-6 -36 118 -4 c112 -3 122 -5 162 -32 49 -33 82
-82 82 -120 0 -34 14 -61 56 -109 l34 -37 -1 47 c0 27 -6 84 -13 128 -8 44
-13 81 -11 83 1 1 9 -8 18 -21 17 -26 37 -142 37 -215 0 -41 5 -53 31 -78 55
-51 128 -164 159 -247 35 -89 61 -217 53 -259 -4 -21 3 -35 35 -70 100 -109
379 -498 509 -710 l60 -97 12 69 c6 38 11 129 11 201 0 106 3 131 13 121 20
-21 21 -216 2 -332 l-17 -100 35 -57 c51 -84 246 -481 292 -595 22 -54 45 -98
51 -98 19 0 84 -81 84 -104 0 -3 -11 -6 -25 -6 -14 0 -25 -1 -25 -3 0 -2 11
-32 25 -68 14 -35 45 -127 69 -203 45 -144 49 -147 62 -46 7 52 8 53 16 25 5
-18 4 -61 -3 -110 -11 -75 -10 -86 14 -175 47 -173 76 -327 88 -464 6 -74 9
-141 6 -148 -3 -7 -6 0 -6 16 -3 115 -121 665 -134 626 -36 -108 -64 -184 -84
-223 -23 -45 -23 -50 -8 -73 8 -13 19 -24 24 -24 13 0 31 -91 31 -158 0 -31 3
-81 6 -109 8 -65 23 -68 88 -19 l45 35 6 -30 c5 -23 2 -36 -14 -53 l-21 -22
36 -17 35 -17 -33 -61 c-34 -62 -88 -119 -113 -119 -16 0 -23 10 -95 123 -27
42 -54 77 -60 77 -6 0 -23 -6 -38 -14 l-28 -14 23 -159 c36 -247 53 -505 53
-788 l0 -260 27 40 c65 95 155 277 215 435 l29 75 -5 -55 c-7 -85 -86 -256
-216 -470 l-58 -95 -11 -165 c-27 -378 -123 -938 -184 -1068 -14 -29 -28 -54
-33 -55 -4 -1 -56 -54 -115 -117 -134 -144 -233 -240 -375 -363 -99 -86 -113
-101 -124 -144 -25 -90 -178 -423 -275 -600 -129 -234 -335 -540 -415 -618
-71 -68 -69 -59 5 35 96 121 280 404 379 582 84 152 237 480 274 586 14 40 28
48 -163 -92 -244 -179 -494 -330 -811 -489 -127 -65 -131 -67 -143 -108 -27
-90 -157 -381 -237 -531 -89 -168 -235 -406 -291 -475 -19 -24 -32 -43 -30
-43 12 0 157 58 287 116 166 72 401 194 540 278 71 43 89 51 70 31 -83 -91
-534 -323 -847 -437 -78 -28 -86 -34 -135 -96 -59 -76 -219 -253 -293 -325
-27 -27 -68 -58 -90 -69 -35 -17 -27 -8 55 74 101 99 245 256 298 325 l33 42
-178 -60 c-179 -60 -466 -137 -664 -179 l-106 -23 -31 -51 c-53 -87 -236 -294
-362 -407 -123 -111 -183 -153 -235 -164 -23 -5 -14 4 41 42 112 76 284 235
391 362 86 100 170 211 161 211 -2 0 -75 -14 -163 -30 -219 -41 -526 -85 -730
-105 -93 -8 -189 -18 -212 -21 l-43 -5 -40 -126 c-40 -124 -43 -130 -168 -305
-81 -113 -133 -178 -145 -178 -12 0 21 53 114 182 125 172 133 187 170 297 22
63 39 119 39 123 0 9 -55 10 -87 2 -12 -3 -41 -32 -65 -63 -57 -76 -170 -185
-242 -234 -240 -163 -533 -185 -782 -59 l-62 31 39 -130 c21 -72 41 -139 44
-150 4 -13 2 -19 -9 -19 -8 0 -17 8 -20 18 -3 9 -23 80 -45 157 -39 134 -42
141 -83 175 -68 55 -156 149 -210 223 -49 66 -50 67 -96 67 -26 0 -110 7 -187
15 -77 8 -153 14 -170 14 -29 0 -28 -1 18 -25 34 -18 47 -30 47 -46 0 -27 -75
-100 -161 -158 -110 -74 -120 -86 -113 -141 4 -33 2 -56 -9 -78 -15 -31 -15
-31 21 -62 l37 -31 -30 7 c-16 3 -41 17 -55 30 -14 12 -43 28 -65 35 -22 7
-94 50 -160 95 -205 139 -200 137 -270 120 -81 -19 -76 -20 -131 23 -27 22
-89 60 -137 86 -53 29 -99 63 -118 86 -28 35 -37 39 -122 56 -68 14 -105 28
-142 53 -48 33 -195 143 -263 198 -18 14 -35 24 -37 21 -10 -9 178 -245 268
-336 84 -86 88 -92 51 -73 -51 25 -137 117 -266 286 l-100 130 -79 17 c-43 10
-104 32 -135 49 -55 32 -55 32 -128 20 -90 -15 -121 -8 -136 29 -14 33 -94 73
-203 101 -50 13 -85 30 -130 65 -103 79 -166 146 -203 214 -33 63 -39 68 -162
145 -149 93 -235 159 -317 246 -33 35 -46 52 -30 38 61 -53 286 -219 296 -219
11 0 -20 59 -68 130 -13 19 -40 46 -61 60 -20 14 -49 48 -64 75 -33 60 -102
244 -94 252 5 5 64 -25 117 -60 24 -16 21 -5 -44 155 -38 95 -82 209 -97 253
l-27 80 -114 70 c-276 171 -501 348 -700 552 l-135 138 16 -82 c10 -46 16 -83
14 -83 -10 0 -36 69 -53 140 -16 64 -29 93 -67 143 -42 56 -121 204 -112 212
2 2 30 -39 62 -91 66 -104 91 -133 82 -93 -36 168 -73 495 -86 754 -6 116 -15
235 -20 265 -5 30 -12 95 -16 144 -7 87 -8 89 -66 175 -69 99 -115 177 -185
311 -50 96 -144 304 -158 350 l-8 25 -9 -25 c-5 -14 -7 -70 -4 -125 4 -89 4
-92 -4 -30 -5 39 -12 143 -16 232 -7 166 -5 188 37 477 14 95 16 132 8 142 -7
9 -9 41 -4 96 3 46 6 116 5 155 0 48 5 83 15 102 9 18 15 54 14 88 -1 32 4
105 11 163 6 58 11 126 11 153 -1 26 3 47 9 47 5 0 10 13 10 28 0 39 29 133
47 154 8 9 12 25 9 36 -5 13 2 30 19 50 23 27 24 35 16 71 -8 36 -6 46 14 75
15 22 20 37 13 44 -6 6 0 20 16 39 22 27 25 36 19 82 -5 47 -4 51 16 51 24 0
27 10 9 28 -9 9 -5 20 21 46 32 33 33 38 27 82 -5 39 -3 51 13 68 12 12 24 47
30 82 23 147 228 586 433 932 249 419 652 944 787 1027 58 34 181 171 181 199
0 7 14 25 31 42 24 22 29 24 21 8 -8 -15 -8 -24 0 -32 20 -20 28 -13 28 25 l0
36 24 -22 24 -23 16 55 c9 30 16 60 16 65 0 21 257 239 470 399 960 718 2092
1127 3278 1183 224 10 294 11 404 3z m922 -146 c15 -25 -16 -47 -63 -47 -49 0
-69 14 -55 37 21 34 99 41 118 10z m406 -37 c20 -6 16 -8 -23 -9 -30 -1 -46 3
-42 9 7 11 29 11 65 0z m425 -131 c15 -14 -7 -10 -35 7 l-25 15 25 -7 c14 -3
29 -10 35 -15z m-7838 -5221 c-2 -13 -4 -5 -4 17 -1 22 1 32 4 23 2 -10 2 -28
0 -40z m-10 -240 c-2 -29 -3 -8 -3 47 0 55 1 79 3 53 2 -26 2 -71 0 -100z
m-10 -215 c-3 -10 -5 -4 -5 12 0 17 2 24 5 18 2 -7 2 -21 0 -30z m61 -778 c0
-16 -6 8 -14 55 -7 47 -12 101 -12 120 0 19 6 -5 13 -55 7 -49 13 -103 13
-120z m30 -190 c0 -11 -6 9 -14 45 -7 36 -13 76 -12 90 0 14 6 -6 14 -45 7
-38 13 -79 12 -90z m20 -105 c0 -22 -1 -22 -8 5 -4 17 -8 41 -8 55 0 22 1 22
8 -5 4 -16 8 -41 8 -55z m9 -62 c-3 -7 -5 -2 -5 12 0 14 2 19 5 13 2 -7 2 -19
0 -25z m20 -90 c-3 -8 -6 -5 -6 6 -1 11 2 17 5 13 3 -3 4 -12 1 -19z m10 -40
c-3 -8 -6 -5 -6 6 -1 11 2 17 5 13 3 -3 4 -12 1 -19z m9928 -2716 c6 -4 11
-20 12 -36 1 -30 -3 -30 -73 -10 -28 8 -50 -40 -35 -78 7 -18 6 -29 -2 -37
-18 -18 -34 -12 -36 14 -2 41 -2 48 5 97 6 43 9 47 38 51 56 7 81 7 91 -1z"/>
<path d="M7745 13460 c3 -5 8 -10 11 -10 2 0 4 5 4 10 0 6 -5 10 -11 10 -5 0
-7 -4 -4 -10z"/>
<path d="M7225 13403 c-49 -28 -75 -29 -124 -4 -26 14 -41 17 -48 10 -7 -7 24
-28 96 -65 114 -60 327 -197 419 -271 89 -71 83 -68 76 -47 -4 10 -24 56 -45
102 -35 75 -40 82 -58 73 -16 -9 -21 -7 -26 9 -4 11 -11 17 -17 14 -11 -7 -28
13 -28 34 0 6 11 12 25 12 14 0 25 3 25 7 0 4 -19 35 -41 70 -40 60 -43 63
-60 47 -23 -20 -88 -13 -128 15 -25 17 -27 17 -66 -6z"/>
<path d="M7650 13403 c-36 -22 -50 -25 -93 -20 -27 4 -58 14 -68 23 -29 26
-23 10 18 -52 31 -46 38 -52 46 -38 8 14 12 13 33 -12 l23 -29 1 43 c0 45 2
47 30 32 15 -8 20 -6 25 10 6 19 8 19 31 3 29 -18 34 -15 37 22 3 42 -30 49
-83 18z"/>
<path d="M6977 13352 c-20 -14 -37 -27 -37 -31 1 -3 21 -19 47 -35 45 -29 45
-30 22 -39 -22 -8 -17 -12 46 -33 l70 -25 21 26 c13 17 35 28 64 33 l45 8 -65
35 c-36 20 -90 47 -120 61 l-55 25 -38 -25z"/>
<path d="M6627 13236 c-50 -30 -49 -29 -37 -61 8 -20 8 -30 0 -35 -6 -4 32
-10 85 -14 52 -3 115 -9 139 -12 42 -6 44 -5 49 22 3 16 8 39 12 51 6 19 2 23
-31 32 -20 6 -56 8 -80 4 -33 -4 -49 -1 -71 15 l-29 20 -37 -22z"/>
<path d="M7570 13255 c0 -5 5 -17 10 -25 5 -8 10 -10 10 -5 0 6 -5 17 -10 25
-5 8 -10 11 -10 5z"/>
<path d="M8890 13240 c0 -11 14 -11 50 0 22 7 21 8 -12 9 -21 1 -38 -3 -38 -9z"/>
<path d="M8827 13213 c9 -16 18 -30 20 -32 2 -2 3 10 3 27 0 25 -4 32 -20 32
-20 0 -20 -1 -3 -27z"/>
<path d="M7285 13213 c20 -49 19 -52 -19 -43 -41 9 -60 -5 -24 -19 167 -64
227 -90 308 -132 l95 -49 -40 36 c-70 64 -297 224 -317 224 -6 0 -7 -7 -3 -17z"/>
<path d="M7650 13215 c-7 -8 -21 -15 -32 -15 -12 0 -18 -5 -15 -12 3 -7 21
-48 40 -90 l34 -78 7 90 c5 72 4 94 -8 105 -12 13 -16 13 -26 0z"/>
<path d="M7780 13210 c0 -16 -5 -19 -29 -14 -26 6 -28 3 -34 -33 -4 -21 -7
-81 -7 -133 l0 -95 43 68 c23 38 61 94 84 125 l41 57 -45 22 c-54 28 -53 28
-53 3z"/>
<path d="M7000 13145 c-39 -39 -40 -43 -20 -48 17 -4 24 2 37 29 13 27 23 34
45 34 31 0 31 14 -1 23 -13 3 -32 -8 -61 -38z"/>
<path d="M6407 13163 c-17 -16 -4 -23 41 -22 l47 1 -35 13 c-42 16 -45 17 -53
8z"/>
<path d="M7213 13115 c4 -9 7 -27 7 -39 0 -21 9 -25 83 -41 45 -10 126 -31
181 -47 54 -16 100 -27 103 -25 10 11 -251 130 -356 162 -20 6 -23 4 -18 -10z"/>
<path d="M7070 13101 c0 -18 34 -31 82 -31 17 0 18 3 8 15 -8 9 -21 13 -36 9
-18 -5 -24 -2 -24 10 0 9 -7 16 -15 16 -8 0 -15 -8 -15 -19z"/>
<path d="M6057 13094 c-16 -8 -37 -34 -47 -57 -11 -23 -26 -51 -34 -62 -15
-20 -15 -20 126 -6 103 11 134 17 116 23 -24 8 -48 59 -48 102 0 21 -74 21
-113 0z"/>
<path d="M6291 13078 c12 -43 13 -41 -16 -36 -19 4 -25 1 -25 -13 0 -45 -1
-44 203 -36 281 13 844 -18 1087 -59 19 -3 32 -3 29 0 -10 10 -349 94 -449
111 -52 8 -108 18 -123 21 -26 5 -27 4 -22 -19 5 -20 2 -26 -18 -31 -30 -7
-84 20 -93 46 -6 21 -28 25 -203 38 -176 13 -294 13 -308 -1 -8 -8 -17 -8 -31
0 -35 18 -41 14 -31 -21z"/>
<path d="M8050 13062 c-134 -58 -295 -146 -204 -112 44 17 256 68 312 76 28 3
52 10 52 13 0 11 -55 61 -66 61 -5 -1 -47 -17 -94 -38z"/>
<path d="M8347 13001 c-39 -12 -54 -13 -82 -2 -19 7 -51 9 -72 6 -52 -9 -305
-67 -301 -69 2 -1 129 0 283 2 l280 4 -27 22 c-14 11 -28 28 -29 37 -4 14 -9
14 -52 0z"/>
<path d="M6380 12963 c-156 -5 -387 -30 -376 -40 3 -3 -1 -21 -9 -40 -8 -20
-15 -37 -15 -39 0 -8 90 -15 110 -9 13 4 36 21 52 37 49 50 87 60 196 52 60
-4 115 -14 143 -26 45 -19 50 -19 220 -2 96 9 289 19 429 23 l255 6 -130 13
c-287 28 -546 36 -875 25z"/>
<path d="M9818 12963 c7 -3 16 -2 19 1 4 3 -2 6 -13 5 -11 0 -14 -3 -6 -6z"/>
<path d="M9953 12919 l12 -30 18 22 c18 22 18 23 0 30 -37 15 -42 11 -30 -22z"/>
<path d="M8070 12911 c-19 -5 -4 -9 60 -15 100 -9 302 -34 345 -42 26 -6 28
-5 17 9 -7 8 -28 18 -47 21 -18 4 -35 11 -37 16 -4 12 -305 22 -338 11z"/>
<path d="M7085 12893 c-106 -4 -481 -32 -522 -39 -18 -4 -30 -10 -28 -15 3 -5
-1 -22 -10 -40 -19 -35 -18 -38 16 -41 34 -3 241 43 259 58 8 6 40 15 71 18
37 5 63 14 74 26 17 19 18 19 46 -1 16 -11 32 -18 36 -16 5 3 82 13 173 22
266 29 219 40 -115 28z"/>
<path d="M7800 12882 c8 -5 80 -29 160 -52 80 -23 221 -66 315 -96 93 -30 173
-54 177 -54 4 0 -9 23 -28 51 -38 58 -42 76 -16 95 15 12 15 13 1 14 -9 0 -97
9 -195 20 -219 23 -435 35 -414 22z m590 -126 c0 -3 -4 -8 -10 -11 -5 -3 -10
-1 -10 4 0 6 5 11 10 11 6 0 10 -2 10 -4z"/>
<path d="M9538 12840 l-16 -39 56 -11 c32 -6 111 -24 177 -40 66 -16 122 -27
123 -25 2 2 1 13 -3 24 -6 20 -20 26 -123 51 -30 8 -46 18 -54 36 -15 33 -24
30 -38 -12 -12 -34 -14 -36 -49 -29 -44 8 -43 7 -50 49 l-6 35 -17 -39z"/>
<path d="M7450 12863 c-60 -4 -326 -33 -372 -40 -21 -3 -35 -9 -33 -14 3 -4
-15 -11 -40 -14 -36 -6 -45 -11 -45 -27 0 -17 -5 -19 -38 -13 -21 3 -50 1 -65
-4 -24 -10 -26 -13 -17 -32 10 -18 9 -20 -7 -16 -68 20 -80 18 -154 -22 -48
-26 -87 -41 -110 -41 -29 0 -43 -7 -67 -34 -16 -18 -32 -50 -36 -71 -6 -32
-10 -36 -29 -31 -12 3 -27 6 -34 6 -7 0 -28 14 -47 31 -34 29 -40 31 -149 36
-86 4 -116 3 -122 -7 -13 -21 11 -26 94 -16 45 5 84 6 88 2 4 -4 -5 -29 -21
-57 -21 -37 -26 -57 -21 -80 4 -18 2 -36 -5 -44 -7 -8 -9 -15 -5 -15 4 0 98
40 209 89 316 140 687 277 1006 371 170 50 172 54 20 43z"/>
<path d="M9337 12857 c-3 -9 1 -18 10 -21 22 -9 25 -3 10 19 -12 15 -15 16
-20 2z"/>
<path d="M7770 12845 c0 -2 68 -53 150 -114 176 -130 494 -389 632 -514 94
-86 98 -88 120 -73 12 9 34 16 49 16 21 0 31 -10 57 -63 17 -34 34 -77 38 -95
4 -18 11 -35 17 -39 9 -6 17 1 52 51 14 19 15 19 54 1 28 -12 51 -15 75 -11
l36 7 0 64 c0 57 2 64 22 71 22 7 22 7 -7 31 -89 73 -584 350 -881 493 -132
64 -414 183 -414 175z m878 -509 c16 -14 21 -27 17 -43 -4 -16 1 -26 15 -35
28 -18 25 -35 -10 -53 -41 -21 -53 -19 -89 14 -37 34 -40 71 -11 118 21 36 38
36 78 -1z m220 -132 c24 -30 38 -54 33 -54 -5 0 -12 4 -15 9 -4 5 -24 12 -46
16 -26 4 -47 16 -61 33 -19 25 -19 27 -3 39 30 22 47 14 92 -43z"/>
<path d="M7480 12781 c-321 -135 -663 -325 -967 -539 -80 -56 -93 -69 -93 -94
0 -24 4 -28 30 -28 17 0 30 -4 30 -9 0 -6 -22 -40 -50 -76 l-50 -66 26 -9 c14
-6 31 -10 38 -10 18 0 36 -21 36 -42 0 -14 -8 -18 -36 -18 -20 0 -34 -3 -32
-7 2 -5 14 -29 26 -55 12 -27 27 -48 34 -48 8 0 54 46 103 102 259 296 667
679 913 859 98 72 120 89 112 88 -3 0 -57 -22 -120 -48z"/>
<path d="M8454 12807 c12 -12 27 -30 32 -38 5 -8 20 -23 34 -32 15 -11 24 -27
25 -44 0 -23 6 -30 33 -38 17 -5 32 -14 32 -21 0 -6 75 -40 168 -74 92 -35
241 -94 331 -131 161 -67 165 -68 212 -57 44 10 53 17 87 70 28 45 42 58 57
55 11 -2 48 -10 82 -17 59 -13 63 -13 107 11 25 13 46 27 46 30 0 7 -344 114
-495 155 -177 47 -295 72 -315 67 -11 -3 -43 4 -70 16 -40 17 -325 71 -377 71
-7 0 -2 -10 11 -23z m708 -184 c25 -7 12 -23 -18 -23 -13 0 -24 2 -24 4 0 2
-3 12 -7 22 -5 14 -3 16 13 10 10 -5 27 -11 36 -13z"/>
<path d="M9465 12820 c-3 -5 1 -10 10 -10 9 0 13 5 10 10 -3 6 -8 10 -10 10
-2 0 -7 -4 -10 -10z"/>
<path d="M9239 12799 c-31 -11 -68 -32 -83 -48 l-27 -28 108 -28 c59 -15 197
-56 305 -90 l197 -62 28 35 29 35 94 -31 c73 -25 113 -32 170 -32 108 0 155
-22 175 -79 8 -25 13 -46 10 -49 -2 -2 -25 7 -51 22 -25 14 -48 26 -49 26 -2
0 -6 -11 -9 -24 -3 -13 -9 -31 -12 -40 -5 -12 8 -22 50 -41 31 -14 61 -25 67
-25 6 0 33 16 59 35 55 41 51 40 107 19 28 -11 42 -22 41 -32 -4 -19 29 -30
94 -31 28 -1 53 -7 62 -17 21 -20 20 -27 -4 -49 -17 -15 -24 -16 -46 -7 -13 7
-45 12 -70 12 -69 0 -54 -23 49 -77 l87 -47 28 28 c25 23 32 25 56 16 38 -14
38 -14 21 26 -8 20 -15 40 -15 45 0 14 89 22 104 10 11 -10 15 -4 17 33 7 85
9 83 -164 147 -382 143 -775 248 -1352 363 -11 2 -45 -5 -76 -15z m332 -71
c-26 -9 -41 -3 -41 17 0 11 6 12 32 3 31 -11 31 -11 9 -20z"/>
<path d="M7604 12752 c-142 -162 -327 -438 -464 -692 -66 -122 -219 -431 -241
-487 l-9 -23 295 0 295 0 4 23 c2 12 23 186 46 387 44 384 91 712 115 794 8
27 14 51 12 52 -2 2 -26 -22 -53 -54z"/>
<path d="M7720 12807 c0 -4 7 -22 16 -39 26 -51 130 -436 203 -758 38 -168 71
-314 73 -325 4 -21 47 -33 126 -34 35 -1 44 -5 54 -26 10 -23 16 -25 86 -25
64 0 78 3 104 25 25 21 39 25 100 25 l69 0 -32 58 c-64 113 -255 410 -360 558
-172 243 -437 570 -439 541z"/>
<path d="M7797 12774 c12 -16 31 -38 43 -49 32 -29 231 -287 346 -450 105
-147 295 -443 358 -558 29 -51 44 -68 64 -73 15 -3 39 -12 54 -20 25 -14 27
-13 47 20 12 19 29 37 39 41 30 12 194 4 236 -11 64 -24 70 -25 86 -14 12 8
-9 33 -108 133 -121 122 -124 124 -160 118 -35 -6 -37 -8 -40 -49 -2 -23 -5
-42 -7 -42 -13 0 -95 45 -95 52 0 5 7 22 15 38 14 28 14 30 -2 30 -10 0 -24 4
-32 9 -12 7 -7 13 22 27 32 15 36 21 30 43 -8 33 -20 41 -60 41 -36 0 -42 10
-18 30 9 7 14 16 13 20 -2 4 -48 47 -104 96 -248 222 -771 630 -727 568z m793
-735 c0 -18 -48 -9 -53 10 -4 17 -2 18 24 9 16 -5 29 -14 29 -19z"/>
<path d="M7500 12718 c-148 -111 -341 -279 -505 -438 -144 -139 -465 -478
-465 -491 0 -3 28 -9 61 -12 34 -3 66 -11 73 -17 12 -13 4 -20 -78 -77 -46
-33 -57 -60 -37 -92 11 -17 91 -31 217 -38 l90 -4 78 163 c203 427 456 842
632 1037 20 23 35 41 33 41 -2 0 -47 -33 -99 -72z"/>
<path d="M7672 12752 c-20 -67 -71 -415 -112 -765 -22 -188 -42 -363 -45 -390
l-6 -47 248 2 c214 3 248 5 245 18 -2 8 -8 44 -13 79 -15 103 -145 658 -205
871 -53 192 -80 270 -94 270 -4 0 -12 -17 -18 -38z"/>
<path d="M7160 12705 c-118 -40 -287 -100 -375 -135 -167 -64 -543 -227 -560
-242 -5 -4 8 -8 30 -9 l40 -1 -32 -14 c-17 -7 -34 -22 -38 -33 -8 -25 -87 -84
-143 -106 -65 -26 -51 -45 34 -45 35 0 47 -5 59 -24 15 -23 15 -27 -2 -53 -18
-27 -18 -27 2 -13 212 156 205 150 205 186 l0 34 40 -6 c34 -6 45 -2 87 28
173 125 520 329 747 438 78 38 137 68 131 68 -5 0 -107 -32 -225 -73z"/>
<path d="M8195 12696 c300 -146 681 -358 869 -485 49 -33 63 -38 79 -29 15 8
31 5 69 -13 46 -22 49 -25 46 -55 -5 -41 15 -54 81 -54 43 0 54 -4 80 -32 17
-18 31 -36 31 -40 0 -4 25 -22 56 -39 55 -32 56 -32 33 -45 -23 -12 -23 -13
-4 -20 11 -4 35 -13 54 -20 43 -18 65 -18 100 1 25 12 51 57 51 86 0 5 -16 9
-35 9 -24 0 -35 5 -35 14 0 25 50 56 90 56 39 0 71 24 54 39 -21 19 -131 71
-151 71 -12 0 -26 6 -30 14 -4 7 -27 23 -51 35 l-44 22 -33 -25 -33 -25 -6 22
c-3 12 -6 32 -6 44 0 32 -29 36 -94 13 l-57 -19 5 27 c11 52 -10 71 -149 128
-303 127 -548 216 -579 211 -41 -6 -86 10 -111 38 -14 17 -78 41 -228 89 -114
36 -211 66 -215 65 -4 0 70 -38 163 -83z"/>
<path d="M6648 12743 c7 -3 16 -2 19 1 4 3 -2 6 -13 5 -11 0 -14 -3 -6 -6z"/>
<path d="M9940 12720 c-13 -8 -13 -10 0 -14 31 -10 90 -24 90 -21 0 3 -69 45
-73 45 -1 0 -9 -4 -17 -10z"/>
<path d="M9854 12361 c-17 -4 -45 -16 -62 -27 -31 -18 -32 -21 -32 -85 0 -59
-3 -68 -20 -74 -29 -9 -25 -19 22 -45 41 -23 172 -49 253 -50 56 -1 65 -10 72
-72 6 -58 24 -78 73 -78 11 0 25 -9 32 -21 7 -11 38 -34 68 -51 30 -17 103
-62 162 -100 59 -37 111 -68 117 -68 6 0 33 28 60 62 46 57 49 63 35 82 -21
30 -18 36 20 36 25 0 38 6 50 25 l16 25 -63 0 c-63 0 -65 1 -91 38 -16 24 -26
51 -26 74 0 35 -2 37 -42 43 -74 12 -75 21 -10 43 33 11 63 18 66 14 3 -3 6
-1 6 4 0 5 -27 23 -59 41 l-60 31 -3 -24 -3 -24 -45 30 c-29 19 -53 29 -66 25
-63 -15 -188 78 -143 106 15 9 -27 29 -76 35 -72 10 -223 13 -251 5z"/>
<path d="M9565 12241 c-3 -6 4 -15 15 -21 20 -11 21 -10 10 9 -12 23 -16 25
-25 12z"/>
<path d="M6280 12075 c-41 -32 -77 -60 -80 -63 -3 -3 15 -2 39 2 34 5 48 3 62
-10 17 -15 19 -15 19 -1 0 8 9 37 20 63 11 26 19 51 18 56 -2 6 -37 -16 -78
-47z"/>
<path d="M9822 11925 c19 -22 23 -24 31 -9 10 18 -6 34 -35 34 -16 0 -15 -3 4
-25z"/>
<path d="M9092 11875 l-22 -46 -39 30 c-30 24 -49 31 -82 31 l-44 0 100 -100
c55 -55 105 -100 112 -100 6 0 21 -12 32 -26 l20 -26 124 7 123 8 24 43 c12
24 28 44 34 44 6 0 45 -16 85 -35 l74 -36 -67 63 c-64 61 -66 64 -57 95 7 24
6 35 -4 43 -21 17 -52 3 -63 -29 -8 -22 -21 -32 -58 -45 -64 -22 -67 -21 -136
21 -58 36 -60 36 -86 20 l-27 -16 -10 51 -10 50 -23 -47z"/>
<path d="M10090 11909 c0 -5 5 -7 10 -4 6 3 10 8 10 11 0 2 -4 4 -10 4 -5 0
-10 -5 -10 -11z"/>
<path d="M10736 11895 c-17 -25 -16 -26 14 -36 28 -10 30 -14 30 -60 0 -47 -1
-49 -29 -49 -15 0 -40 9 -54 20 -14 11 -27 20 -29 20 -8 0 -100 -122 -96 -126
2 -2 42 -29 88 -60 l84 -56 196 7 c236 7 250 9 243 36 -5 17 -14 19 -78 19
l-72 0 33 36 c19 19 34 40 34 45 0 5 16 9 35 9 19 0 35 4 35 8 0 4 -15 23 -34
41 -33 32 -38 33 -85 27 l-50 -7 -15 36 -15 35 -79 0 -79 0 -16 40 c-18 46
-38 51 -61 15z"/>
<path d="M10220 11837 c0 -8 -10 -22 -22 -30 -22 -15 -22 -16 25 -16 46 -1 47
-1 47 -33 0 -45 9 -55 53 -63 32 -6 37 -11 37 -34 0 -44 11 -69 37 -87 25 -16
26 -15 74 32 27 27 49 51 49 54 0 3 -57 41 -128 85 -70 43 -137 86 -149 93
-20 12 -23 12 -23 -1z"/>
<path d="M10500 11595 l-44 -45 112 0 c62 0 112 2 112 5 0 6 -120 85 -129 85
-4 0 -27 -20 -51 -45z"/>
<path d="M8677 11587 c-11 -29 -9 -43 4 -30 6 6 9 19 7 29 -3 18 -4 18 -11 1z"/>
<path d="M3626 11337 c-211 -21 -382 -125 -460 -279 -72 -144 -82 -287 -31
-476 35 -129 63 -199 167 -407 50 -99 293 -589 541 -1090 247 -500 578 -1169
735 -1485 156 -316 362 -732 457 -925 95 -192 320 -647 500 -1010 180 -363
387 -781 460 -930 73 -148 300 -607 505 -1020 205 -412 419 -844 475 -960 120
-244 181 -346 261 -435 137 -154 287 -230 454 -230 264 1 489 180 665 531 26
51 168 353 315 669 327 703 1076 2313 1308 2810 93 201 549 1180 1012 2175
463 996 871 1863 907 1927 127 228 181 381 190 538 18 311 -178 529 -530 590
-76 14 -7799 20 -7931 7z m7872 -161 c85 -9 201 -47 262 -86 63 -41 106 -90
139 -160 23 -48 26 -67 26 -160 -1 -91 -5 -117 -33 -197 -33 -97 -88 -214
-153 -323 -21 -36 -147 -299 -280 -585 -232 -500 -473 -1018 -1279 -2750 -205
-440 -522 -1122 -705 -1515 -1392 -2992 -1279 -2753 -1352 -2863 -72 -108
-167 -198 -256 -242 -169 -84 -331 -50 -482 100 -91 89 -129 155 -325 550 -98
198 -305 617 -460 930 -155 314 -383 773 -505 1020 -122 248 -556 1125 -965
1950 -409 825 -841 1698 -960 1940 -119 242 -353 714 -519 1049 -310 624 -360
739 -382 889 -38 254 107 427 381 455 90 9 7758 7 7848 -2z"/>
<path d="M3704 10969 c-95 -7 -165 -31 -196 -65 -26 -30 -38 -99 -27 -165 15
-97 66 -222 177 -444 157 -314 1306 -2635 1435 -2898 87 -180 113 -225 123
-215 6 7 263 401 569 876 307 474 560 860 564 857 3 -3 138 -233 301 -511 162
-278 300 -506 305 -506 9 -1 155 219 587 881 l106 163 25 -38 c13 -22 162
-259 332 -529 169 -269 313 -495 319 -502 8 -9 85 114 321 517 236 402 313
526 322 517 6 -7 112 -174 235 -372 724 -1162 851 -1365 854 -1362 11 10 344
719 866 1840 325 698 615 1312 646 1365 175 304 194 475 61 542 -94 49 -155
55 -449 51 -414 -7 -7320 -7 -7355 0 -16 3 -71 2 -121 -2z m4426 -200 c7 -12
11 -62 10 -117 -1 -53 -2 -103 -1 -109 1 -9 19 -13 56 -13 l56 0 -3 -62 -3
-63 -60 -5 c-50 -4 -60 -8 -63 -25 -22 -129 -99 -360 -130 -388 -17 -15 -22
-14 -70 19 -29 19 -52 39 -52 45 0 5 15 40 34 77 35 71 71 173 82 235 l6 37
-60 0 c-73 0 -84 11 -80 77 l3 48 70 5 70 5 3 115 c1 63 4 121 7 128 3 7 24
12 59 12 46 0 57 -4 66 -21z m460 -79 l5 -95 39 -3 c24 -2 42 2 47 10 5 7 9
52 9 101 l0 87 68 0 c40 0 73 -5 80 -12 8 -8 12 -49 12 -120 0 -119 -4 -113
75 -120 29 -3 30 -4 33 -63 5 -96 0 -105 -58 -105 l-50 0 0 -99 0 -100 53 -3
52 -3 3 -60 c5 -96 0 -105 -58 -105 l-50 0 0 -105 0 -105 39 0 c69 0 71 -2 71
-99 0 -54 -5 -92 -12 -99 -7 -7 -31 -12 -55 -12 l-43 0 0 -95 0 -95 43 0 c24
0 48 -5 55 -12 16 -16 16 -149 0 -171 -12 -16 -37 -17 -273 -15 l-260 3 -3
488 -2 487 -50 0 c-27 0 -51 4 -55 10 -5 7 142 499 176 587 8 22 14 24 56 21
l48 -3 5 -95z m-1790 20 l0 -60 -109 0 c-104 0 -109 -1 -115 -22 -12 -48 -12
-48 109 -48 l115 0 0 -50 0 -50 -45 0 c-36 0 -45 -3 -45 -17 0 -10 -3 -28 -6
-40 -6 -22 -3 -23 45 -23 l51 0 0 -50 c0 -49 -1 -50 -31 -50 -27 0 -30 -3 -27
-27 2 -19 12 -32 31 -41 23 -11 27 -19 27 -53 0 -39 0 -39 -38 -39 -42 0 -72
22 -98 71 l-16 31 -18 -29 c-28 -47 -68 -73 -110 -73 -36 0 -38 2 -49 44 -15
62 -15 64 20 68 22 2 34 10 40 26 8 20 6 22 -31 22 l-40 0 0 50 0 50 50 0 c48
0 49 1 56 35 8 46 1 52 -39 36 -18 -7 -44 -16 -59 -18 l-28 -5 0 -159 0 -159
180 0 180 0 0 -40 0 -40 -235 0 -235 0 0 360 0 360 235 0 235 0 0 -60z m-1485
10 c20 -44 34 -42 55 10 12 29 14 30 86 30 41 0 74 -2 74 -5 0 -3 -22 -39 -50
-80 -27 -41 -50 -76 -50 -79 0 -15 36 -36 61 -36 l29 0 0 -80 0 -80 -59 0
c-55 0 -61 2 -90 35 l-31 36 -46 -36 c-40 -30 -55 -35 -100 -35 -52 0 -53 1
-59 33 -3 17 -9 53 -14 80 l-8 47 41 0 c43 0 53 4 74 31 10 14 5 26 -34 80
-26 35 -51 70 -57 77 -7 9 9 12 75 12 l85 0 18 -40z m2045 -20 c0 -45 4 -62
15 -66 11 -4 15 -21 15 -55 l0 -49 -49 0 c-43 0 -53 4 -76 31 -14 18 -29 45
-32 60 l-5 29 -99 0 -99 0 -11 -44 c-15 -61 -46 -88 -109 -94 l-50 -5 0 56 c0
46 3 55 20 60 17 4 20 14 20 71 l0 66 230 0 230 0 0 -60z m2688 10 c5 -99 -16
-90 220 -90 114 0 213 -4 220 -9 9 -5 12 -24 10 -52 l-3 -44 -85 -5 -85 -5 -3
-304 c-1 -205 1 -308 8 -315 6 -6 46 -13 88 -16 l77 -5 3 -329 c2 -257 -1
-331 -10 -338 -21 -13 -114 -9 -127 5 -7 9 -12 103 -13 278 l-3 264 -425 0
-425 0 -5 -275 -5 -275 -60 0 -60 0 -3 315 c-1 173 0 325 3 338 5 20 11 22 68
22 34 0 68 4 75 8 11 8 16 241 12 614 0 14 -12 18 -77 20 l-78 3 0 50 0 50
215 5 215 5 3 55 c4 85 -3 81 129 78 l118 -3 3 -45z m-5146 -2 l3 -43 77 -3
76 -3 4 -59 3 -60 -76 0 c-86 0 -89 -2 -89 -87 l0 -43 80 0 c86 0 82 3 82 -60
0 -51 2 -50 -82 -50 l-80 0 3 -52 2 -53 78 -3 c84 -3 78 3 80 -74 l1 -33 -142
-3 -142 -3 0 336 0 335 59 0 60 0 3 -42z m948 -293 l0 -335 -140 0 -140 0 0
55 0 54 78 3 77 3 3 53 3 52 -80 0 -81 0 0 55 0 55 80 0 81 0 -3 63 -3 62 -77
3 -78 3 0 59 0 60 80 0 80 0 0 45 0 45 60 0 60 0 0 -335z m1527 -21 c-3 -48
-14 -84 -37 -128 l-31 -61 40 -35 c37 -32 41 -40 41 -83 0 -32 -4 -47 -13 -47
-33 0 -119 33 -146 56 l-30 25 -40 -26 c-54 -37 -122 -55 -202 -55 -65 0 -67
1 -73 28 -4 15 -9 34 -12 43 -4 13 6 17 52 23 30 3 72 13 91 21 l36 15 -40 29
c-22 16 -61 61 -87 99 -38 58 -46 78 -46 116 l0 46 251 0 252 0 -6 -66z
m-2056 -35 l11 -21 22 22 c20 18 33 21 94 18 l71 -3 -50 -78 c-57 -89 -55
-107 12 -107 l39 0 0 -60 0 -60 -66 0 c-59 0 -68 3 -95 30 l-30 29 -46 -29
c-35 -22 -59 -30 -94 -30 -52 0 -54 2 -64 74 l-7 46 34 0 c34 0 78 23 78 41 0
6 -17 36 -38 67 -21 31 -42 63 -46 70 -5 9 13 12 78 12 76 0 86 -2 97 -21z
m2914 -297 c-16 -87 -110 -293 -179 -395 -24 -35 -26 -46 -26 -151 0 -133 3
-139 82 -134 l53 3 3 138 3 137 53 0 c40 0 55 -4 60 -16 3 -9 6 -109 6 -224 0
-164 -3 -210 -14 -219 -9 -8 -75 -11 -217 -9 l-204 3 0 220 0 220 73 89 c74
92 166 260 178 326 10 51 16 55 79 52 l57 -4 -7 -36z m-2367 -469 l-3 -398
-64 0 -63 0 -2 311 c-1 292 -2 313 -20 333 -19 21 -25 21 -406 21 -287 0 -389
-3 -398 -12 -9 -9 -12 -97 -12 -335 l0 -323 -60 0 -60 0 0 400 0 400 545 0
545 0 -2 -397z m1550 335 l3 -58 -151 0 -150 0 0 -30 0 -30 140 0 140 0 0
-265 c0 -283 -4 -309 -50 -350 -21 -19 -36 -20 -519 -20 l-496 0 -3 318 -2
317 130 0 130 0 0 30 0 29 -137 3 -138 3 -3 44 c-6 78 -54 72 555 69 l548 -3
3 -57z m-1758 -220 l0 -63 -100 -44 c-86 -38 -100 -47 -100 -68 0 -23 1 -23
110 -23 l110 0 0 -45 0 -45 -109 0 -109 0 -4 -108 c-2 -73 -7 -114 -17 -125
-12 -15 -41 -17 -226 -17 l-212 0 -7 31 c-3 17 -6 42 -6 55 l0 24 143 0 c98 0
147 4 155 12 7 7 12 38 12 70 l0 58 -175 0 -175 0 0 45 0 45 175 0 175 0 0 37
c0 28 8 45 32 70 l32 33 -197 0 -197 0 0 53 c0 30 3 57 7 60 3 4 159 7 345 7
l338 0 0 -62z m4528 -300 l-3 -173 -262 -3 -263 -2 0 163 c0 113 4 167 12 175
9 9 82 12 265 12 l253 0 -2 -172z"/>
<path d="M8560 10270 l0 -100 65 0 66 0 -3 98 -3 97 -62 3 -63 3 0 -101z"/>
<path d="M8560 9895 l0 -105 65 0 65 0 0 105 0 105 -65 0 -65 0 0 -105z"/>
<path d="M8560 9485 l0 -95 65 0 65 0 0 95 0 95 -65 0 -65 0 0 -95z"/>
<path d="M6440 10603 c0 -41 2 -45 14 -33 8 8 17 30 21 48 6 28 4 32 -14 32
-18 0 -21 -6 -21 -47z"/>
<path d="M9727 10494 c-4 -4 -7 -34 -7 -66 l0 -58 203 2 202 3 0 60 0 60 -196
3 c-107 1 -198 -1 -202 -4z"/>
<path d="M9732 10241 c-9 -5 -12 -27 -10 -72 l3 -64 200 0 200 0 3 64 c2 45
-1 67 -10 72 -7 5 -94 9 -193 9 -99 0 -186 -4 -193 -9z"/>
<path d="M9738 10013 c-15 -4 -18 -16 -18 -64 0 -53 2 -59 23 -64 12 -3 103
-4 202 -3 l180 3 3 61 3 61 -32 7 c-35 7 -334 6 -361 -1z"/>
<path d="M7050 10361 c0 -22 58 -109 83 -125 25 -16 68 13 95 65 39 76 36 79
-78 79 -91 0 -100 -2 -100 -19z"/>
<path d="M6750 9840 l0 -31 108 3 107 3 3 28 3 27 -110 0 -111 0 0 -30z"/>
<path d="M6490 9655 c0 -22 4 -25 38 -25 39 0 62 14 62 37 0 9 -16 13 -50 13
-47 0 -50 -2 -50 -25z"/>
<path d="M6746 9658 c-3 -13 -8 -40 -11 -60 -9 -57 -33 -68 -147 -68 l-98 0 0
-110 0 -110 375 0 375 0 0 110 0 110 -123 0 c-82 0 -127 4 -135 12 -7 7 -12
39 -12 75 l0 63 -110 0 c-106 0 -110 -1 -114 -22z m464 -258 l0 -50 -345 0
-345 0 0 50 0 50 345 0 345 0 0 -50z"/>
<path d="M7120 9674 c0 -3 5 -14 10 -25 8 -15 22 -19 60 -19 47 0 50 2 50 25
0 24 -3 25 -60 25 -33 0 -60 -3 -60 -6z"/>
<path d="M9830 9405 l0 -66 98 3 97 3 3 54 c2 37 -1 57 -10 62 -7 5 -52 9
-100 9 l-88 0 0 -65z"/>
<path d="M7592 8612 c-28 -43 -120 -184 -205 -313 -84 -129 -215 -328 -291
-443 -80 -122 -141 -205 -146 -200 -5 5 -140 234 -300 509 -161 275 -296 504
-300 509 -5 4 -19 -9 -33 -30 -13 -22 -253 -383 -532 -804 -279 -421 -510
-772 -512 -780 -2 -8 154 -335 348 -725 193 -391 429 -867 524 -1060 95 -192
287 -582 428 -865 140 -283 385 -779 545 -1101 299 -606 351 -699 427 -774 63
-60 123 -82 182 -67 89 24 173 106 256 248 19 32 157 322 307 644 150 322 362
779 472 1015 110 237 231 495 268 575 37 80 173 372 303 650 358 770 559 1203
616 1331 l53 116 -55 84 c-30 46 -262 411 -516 811 -254 400 -465 729 -469
732 -4 2 -146 -232 -316 -520 -169 -288 -311 -524 -315 -524 -3 0 -54 76 -112
168 -58 92 -209 330 -335 529 -126 199 -232 362 -236 363 -3 0 -29 -35 -56
-78z m148 -1227 l0 -115 479 0 480 0 34 -32 c28 -27 36 -45 46 -99 6 -36 11
-105 11 -152 l0 -87 -70 0 -70 0 0 110 0 110 -205 0 -205 0 0 -110 0 -110 -80
0 -80 0 0 110 0 110 -410 0 -410 0 0 -110 0 -110 -75 0 -75 0 0 110 0 110
-220 0 -220 0 0 -110 0 -110 -76 0 -77 0 5 103 c8 147 38 209 123 248 37 17
73 19 473 19 l432 0 0 115 0 115 95 0 95 0 0 -115z m-1070 -605 c0 -19 7 -20
180 -20 l180 0 0 -75 0 -75 -180 0 -180 0 0 -40 0 -40 180 0 180 0 0 -60 0
-60 -180 0 -180 0 0 -60 c0 -50 3 -60 18 -60 9 -1 90 0 180 0 l162 1 0 -66 0
-65 -243 0 -244 0 -6 197 c-4 108 -7 252 -7 320 l0 123 70 0 c63 0 70 -2 70
-20z m2090 -300 l0 -320 -250 0 -251 0 3 63 3 62 183 3 182 2 0 60 0 60 -185
0 -185 0 0 60 0 60 185 0 185 0 0 40 0 40 -182 2 -183 3 -3 73 -3 72 186 0
c178 0 185 1 185 20 0 18 7 20 65 20 l65 0 0 -320z m-1093 235 c50 -38 54 -37
119 12 31 23 36 23 209 21 l177 -3 -123 -70 -123 -69 30 -13 c16 -6 64 -12
107 -13 l77 0 0 -75 0 -75 -122 0 c-135 0 -167 10 -253 71 l-45 32 -42 -18
c-194 -80 -187 -78 -314 -83 l-120 -4 -32 71 c-18 39 -32 73 -32 76 0 3 47 5
105 5 102 0 192 20 180 40 -3 5 -40 25 -83 46 -42 21 -95 49 -117 61 l-40 23
198 0 198 0 46 -35z m2 -312 c28 -17 32 -17 83 0 44 15 81 18 223 15 l170 -3
-100 -57 c-137 -79 -133 -76 -115 -88 8 -5 61 -10 118 -10 l102 0 0 -61 0 -61
-152 3 -153 4 -79 44 -79 43 -92 -36 c-106 -42 -193 -58 -286 -54 l-64 3 -32
50 c-18 27 -33 53 -33 57 0 5 47 8 105 8 73 0 117 5 143 15 l37 16 -65 36
c-36 19 -87 48 -115 64 l-50 29 202 0 c173 0 206 -2 232 -17z m1121 -723 l0
-361 -57 3 -58 3 -5 295 -5 295 -1002 3 -1003 2 0 -300 0 -300 -65 0 -65 0 0
360 0 360 1130 0 1130 0 0 -360z m-1890 -40 l0 -220 330 0 330 0 0 50 0 50
-280 0 -280 0 0 150 0 150 680 0 680 0 0 -150 0 -150 -300 0 -300 0 0 -50 0
-50 350 0 350 0 0 220 0 220 65 0 65 0 0 -285 0 -285 -415 0 -415 0 0 -113 0
-114 -182 -6 c-99 -4 -232 -7 -295 -7 l-113 0 0 55 0 55 195 0 195 0 0 65 0
65 -405 0 -405 0 0 285 0 285 75 0 75 0 0 -220z"/>
<path d="M7120 5680 l0 -50 565 0 565 0 0 50 0 50 -565 0 -565 0 0 -50z"/>
<path d="M12418 10570 c5 -14 26 -50 46 -80 34 -51 55 -114 43 -126 -3 -3 18
-25 46 -48 29 -23 73 -70 100 -105 50 -67 60 -108 32 -145 -26 -34 -18 -73 23
-114 20 -20 44 -49 53 -62 21 -32 39 -117 39 -180 0 -100 34 -56 78 99 l21 72
-43 72 c-81 137 -268 410 -380 557 -66 86 -69 89 -58 60z"/>
<path d="M12878 9727 l-37 -112 20 -28 c15 -21 18 -32 10 -40 -18 -18 -13 -45
10 -58 22 -11 101 -8 132 5 14 7 21 -1 38 -42 19 -45 24 -50 57 -55 21 -2 38
-3 40 -2 6 5 -196 401 -215 423 -18 21 -19 19 -55 -91z"/>
<path d="M12845 9420 c-11 -5 -41 -9 -67 -9 -74 -1 -75 -17 -13 -141 67 -135
162 -353 218 -505 25 -66 50 -133 57 -149 l11 -30 19 32 c32 52 44 43 79 -57
13 -36 37 -86 53 -113 30 -49 30 -57 -4 -94 -18 -21 -18 -25 -2 -150 16 -115
31 -164 53 -164 13 0 49 79 66 145 21 81 23 84 35 65 10 -16 39 42 79 160 38
110 37 140 -7 285 -63 204 -107 320 -125 323 -19 4 -42 -37 -51 -93 -17 -100
-44 -118 -97 -66 -54 54 -38 108 63 214 l54 58 -39 94 c-35 83 -57 117 -57 85
0 -5 -16 -10 -34 -10 -34 0 -35 -1 -38 -47 l-3 -48 -55 55 c-31 30 -73 81 -94
113 -39 58 -56 66 -101 47z"/>
<path d="M12640 9397 c-28 -14 -35 -36 -25 -74 6 -25 6 -25 36 15 36 50 31 80
-11 59z"/>
<path d="M12672 9322 c-12 -16 -22 -34 -22 -39 0 -12 99 -85 110 -81 4 2 -9
36 -29 77 l-38 74 -21 -31z"/>
<path d="M12697 9148 c-69 -34 -80 -43 -97 -81 -10 -23 -21 -66 -25 -95 -6
-42 -12 -56 -30 -64 -45 -20 -56 -79 -29 -148 13 -31 14 -46 5 -71 -6 -18 -11
-35 -11 -40 0 -4 25 -23 55 -44 55 -36 65 -50 44 -57 -8 -3 -1 -35 20 -95 32
-93 37 -128 22 -152 -15 -23 9 -74 70 -151 32 -40 59 -79 59 -85 0 -20 54 -63
113 -91 80 -36 95 -28 137 72 36 87 36 108 -2 283 -18 83 -19 102 -8 160 l12
66 -57 155 c-47 127 -192 475 -198 475 -1 0 -37 -17 -80 -37z"/>
<path d="M2327 9143 c-4 -3 -7 -32 -7 -63 0 -44 -5 -63 -25 -89 -13 -19 -29
-57 -35 -85 -9 -42 -17 -55 -46 -74 -20 -13 -40 -20 -44 -15 -13 14 -22 101
-10 108 5 3 10 10 10 16 0 5 -16 -1 -35 -13 -27 -18 -33 -27 -27 -43 26 -71
-15 -167 -87 -202 -32 -16 -40 -28 -73 -118 -35 -93 -37 -105 -32 -175 7 -88
51 -186 147 -328 l29 -43 41 43 c23 24 57 51 75 60 36 19 41 45 21 122 -13 53
6 162 52 298 l29 87 -25 57 c-14 31 -25 58 -25 60 0 2 14 4 30 4 17 0 30 5 30
10 0 6 -4 10 -8 10 -5 0 -16 6 -26 13 -17 13 -17 16 12 73 42 84 77 294 48
294 -7 0 -16 -3 -19 -7z"/>
<path d="M1896 8713 c-25 -37 -25 -39 -13 -128 l12 -90 26 75 c19 56 25 88 21
128 -2 28 -8 52 -13 52 -5 0 -20 -17 -33 -37z"/>
<path d="M11442 8433 c-28 -11 -31 -16 -22 -33 17 -31 28 -32 70 -9 29 16 37
26 29 35 -16 19 -42 22 -77 7z"/>
<path d="M11252 8332 c-16 -37 -29 -68 -27 -70 1 -2 23 7 49 20 33 16 45 27
41 38 -4 8 -9 27 -12 43 -9 46 -19 40 -51 -31z"/>
<path d="M11509 8371 l-46 -26 44 -39 c25 -21 52 -53 60 -71 9 -18 30 -40 50
-49 18 -9 36 -23 40 -31 3 -9 23 -25 45 -36 60 -31 122 -98 157 -171 30 -64
55 -87 131 -126 14 -7 43 -28 64 -46 l40 -33 -46 -7 c-44 -7 -51 -4 -130 45
-103 64 -125 84 -133 120 -8 34 -31 49 -77 49 -62 0 -77 9 -80 48 -3 33 -7 37
-39 45 -33 8 -36 11 -45 60 -8 45 -12 52 -34 55 -58 6 -70 14 -90 51 -10 21
-32 48 -47 59 l-27 20 -61 -30 c-33 -17 -61 -31 -63 -33 -1 -1 21 -73 49 -161
121 -381 229 -834 279 -1169 12 -82 26 -154 30 -158 8 -10 346 157 490 241
184 108 477 307 509 346 19 23 -23 210 -45 202 -40 -15 -153 55 -200 124 l-24
34 22 23 c12 13 25 23 29 23 4 0 19 4 34 10 l26 10 -48 60 c-39 48 -60 65
-111 87 -44 18 -77 42 -107 75 -41 46 -46 48 -95 48 -43 0 -60 6 -99 33 -25
19 -67 44 -93 56 -42 20 -78 65 -78 98 0 5 -9 19 -20 31 -16 17 -32 22 -68 22
-60 0 -68 6 -96 66 -34 73 -43 77 -97 45z"/>
<path d="M1842 8350 c0 -14 2 -19 5 -12 2 6 2 18 0 25 -3 6 -5 1 -5 -13z"/>
<path d="M1858 8273 c-9 -38 -19 -99 -22 -138 -4 -47 -12 -78 -25 -96 -37 -50
-36 -73 2 -105 41 -34 77 -98 77 -136 0 -42 -28 -36 -80 17 -24 25 -47 42 -51
37 -12 -11 -48 -295 -55 -427 l-6 -120 43 -110 c81 -206 293 -608 359 -678 15
-17 -21 116 -45 162 -18 36 -25 71 -30 152 -7 100 -6 107 18 156 l26 51 -41
96 -40 96 21 80 c18 65 20 87 11 119 -5 21 -15 74 -20 118 -10 77 -10 79 21
140 30 59 31 67 27 145 -4 67 -2 90 13 119 18 36 18 36 -8 73 -40 60 -117 196
-146 259 -14 31 -28 57 -30 57 -2 0 -11 -30 -19 -67z"/>
<path d="M3970 8280 c0 -5 -14 -10 -31 -10 l-31 0 17 -26 c24 -37 22 -101 -5
-173 l-22 -61 -62 0 -62 0 -30 -52 c-22 -39 -61 -79 -149 -151 l-120 -98 -92
5 -92 5 -10 -32 c-23 -75 -94 -368 -120 -497 l-28 -141 26 -18 c38 -26 256
-151 264 -151 4 0 7 8 7 18 0 9 13 24 29 33 24 14 32 28 42 75 7 33 23 69 35
81 12 11 31 38 44 58 l22 36 27 -24 c14 -13 38 -32 53 -42 15 -9 32 -32 39
-52 10 -31 8 -39 -18 -81 -29 -47 -29 -47 -92 -52 l-63 -5 27 -29 c23 -25 26
-36 22 -69 l-5 -39 102 -48 c188 -88 523 -226 530 -219 2 2 18 94 35 204 26
169 90 505 133 700 l10 50 -196 394 c-108 217 -201 400 -207 408 -13 15 -29
17 -29 3z m-212 -568 c44 -6 62 -35 62 -99 0 -51 0 -52 -34 -59 -19 -3 -40 -3
-46 1 -16 10 -36 -10 -60 -61 -27 -54 -56 -59 -94 -13 -35 41 -33 63 12 108
20 21 50 61 65 90 22 42 32 51 45 45 9 -4 32 -9 50 -12z"/>
<path d="M11106 8018 c-137 -295 -711 -1528 -762 -1636 -24 -52 -42 -97 -40
-99 5 -5 133 29 301 78 127 38 494 167 650 229 124 50 287 119 292 124 7 7
-59 395 -97 576 -44 206 -141 567 -212 788 l-43 132 -89 -192z"/>
<path d="M2758 7957 c-36 -21 -38 -25 -38 -73 0 -47 -2 -53 -29 -64 -35 -14
-41 -41 -41 -188 0 -94 2 -106 24 -135 21 -28 23 -38 16 -77 -4 -25 -6 -48 -4
-52 17 -27 410 -305 419 -296 3 3 16 58 29 124 14 65 48 211 76 323 55 222 56
215 -8 227 -20 4 -42 18 -54 35 -26 35 -32 36 -46 4 -10 -21 -18 -24 -74 -27
l-63 -3 -3 -72 c-3 -68 -4 -71 -30 -78 -32 -8 -42 -21 -42 -57 0 -27 -2 -28
-46 -28 l-47 0 6 40 c4 34 2 40 -13 40 -35 0 -29 17 10 29 42 12 75 57 100
134 11 36 10 40 -23 80 -19 23 -45 63 -58 89 l-24 46 -37 -21z"/>
<path d="M13013 7768 c-16 -20 -55 -99 -51 -104 2 -1 23 19 46 45 33 40 39 51
28 60 -10 8 -16 8 -23 -1z"/>
<path d="M13060 7731 c0 -16 -232 -242 -333 -326 -53 -44 -97 -85 -97 -92 0
-6 7 -40 15 -75 30 -129 76 -445 96 -660 15 -167 20 -277 17 -444 l-3 -222 35
32 c19 17 71 63 114 101 93 83 282 292 349 387 l48 67 1 279 c0 153 -5 350
-12 438 -10 144 -55 502 -64 511 -2 2 -20 -4 -41 -14 -36 -17 -37 -17 -75 5
-43 24 -50 26 -50 13z m128 -1124 c7 -8 6 -33 -3 -82 -11 -59 -11 -72 1 -86
36 -40 -6 -60 -65 -29 -51 26 -56 55 -8 47 l32 -5 -1 77 c0 42 1 79 3 84 6 11
29 8 41 -6z"/>
<path d="M12740 7570 c-25 -11 -71 -24 -102 -31 -32 -6 -58 -14 -58 -16 0 -18
34 -150 41 -157 7 -8 94 60 224 178 l50 45 -55 0 c-30 -1 -75 -9 -100 -19z"/>
<path d="M2295 7468 c-10 -28 -34 -158 -46 -248 -11 -91 -11 -97 10 -137 15
-30 21 -60 21 -107 0 -37 7 -83 16 -106 15 -36 15 -44 0 -86 -14 -43 -14 -52
4 -127 10 -45 26 -104 34 -132 14 -45 14 -55 0 -97 -15 -45 -14 -48 10 -97 24
-47 25 -51 10 -86 -13 -33 -13 -39 0 -60 29 -45 275 -289 283 -281 4 4 -5 19
-22 33 l-29 26 23 18 c36 29 87 34 167 15 66 -16 75 -16 110 -1 97 40 109 72
128 336 15 208 54 538 77 648 6 29 7 56 2 60 -4 4 -57 41 -118 81 -60 40 -149
104 -197 142 -48 37 -92 68 -98 68 -25 0 -8 -46 26 -70 35 -24 36 -25 30 -75
-3 -27 -6 -62 -6 -77 0 -21 -6 -28 -31 -33 l-32 -7 6 -79 6 -79 -59 0 c-59 0
-60 0 -86 -41 -24 -39 -28 -41 -62 -35 -21 3 -42 6 -49 6 -13 0 -43 121 -43
173 0 18 11 56 25 83 14 27 25 52 25 57 0 4 -15 7 -34 7 -32 0 -35 2 -41 42
-7 38 -5 44 24 67 29 24 31 31 31 87 l0 62 -48 31 c-54 35 -61 36 -67 19z"/>
<path d="M2241 7435 c-6 -22 -14 -74 -16 -115 l-5 -75 20 100 c21 106 22 157
1 90z"/>
<path d="M4402 7340 c-52 -232 -142 -745 -142 -811 0 -24 8 -29 88 -57 198
-71 629 -198 638 -189 3 2 -96 206 -219 453 -122 247 -250 505 -284 574 l-60
125 -21 -95z"/>
<path d="M12535 7254 c-218 -164 -460 -311 -750 -456 -110 -55 -201 -101 -201
-102 -1 0 9 -100 22 -221 20 -177 25 -295 30 -605 3 -212 2 -441 -3 -510 -5
-69 -8 -127 -6 -130 6 -7 388 187 533 271 170 98 426 271 530 358 l35 30 3
238 c2 161 -2 299 -13 428 -22 256 -92 714 -114 737 -3 4 -33 -14 -66 -38z"/>
<path d="M3116 6968 c-36 -222 -96 -792 -84 -804 2 -1 23 -6 48 -11 l45 -9 26
-74 c26 -74 27 -75 73 -89 45 -14 46 -15 46 -57 l0 -43 -45 -7 c-25 -3 -47
-10 -50 -14 -3 -4 0 -23 7 -41 11 -31 10 -34 -26 -64 l-37 -31 54 -22 54 -23
7 -72 c3 -40 9 -86 12 -104 5 -23 2 -32 -10 -35 -10 -2 -2 -11 24 -26 l40 -23
12 26 c18 40 75 35 152 -13 34 -21 88 -49 121 -61 64 -25 95 -52 95 -82 0 -14
-9 -18 -47 -21 l-48 -3 143 -64 c78 -35 144 -62 145 -60 2 2 12 27 22 54 l19
50 11 -53 c8 -45 15 -56 40 -69 17 -8 37 -23 45 -32 13 -15 110 -61 129 -61 3
0 6 141 7 313 1 349 13 579 50 899 13 119 24 223 24 231 0 9 -39 30 -107 58
-158 62 -398 166 -478 207 -38 19 -97 42 -130 51 -43 11 -63 22 -70 38 -5 12
-20 27 -33 33 -14 6 -78 42 -143 80 -65 39 -122 70 -127 70 -5 0 -13 -19 -16
-42z m242 -512 c17 -90 16 -94 -20 -101 -60 -12 -65 -15 -96 -64 -54 -87 -113
-104 -126 -37 -7 36 3 66 40 127 17 27 33 39 67 49 32 8 55 24 77 51 17 21 34
39 39 39 4 0 13 -29 19 -64z m484 -393 c18 -17 28 -37 28 -55 0 -23 6 -31 30
-40 20 -7 32 -19 36 -36 3 -15 7 -32 9 -39 2 -6 -5 -28 -16 -49 -10 -21 -22
-52 -25 -70 -5 -28 -13 -34 -72 -58 -37 -14 -87 -39 -112 -56 -45 -30 -80 -39
-80 -20 0 6 9 28 20 50 25 48 25 69 3 68 -23 -1 -73 19 -73 29 0 4 14 22 32
40 25 26 29 36 20 45 -9 9 -20 8 -47 -5 -64 -30 -105 -18 -105 32 0 43 46 78
145 111 50 17 107 41 126 55 43 31 47 31 81 -2z"/>
<path d="M11490 6659 c-254 -118 -779 -302 -1107 -389 -75 -20 -82 -24 -78
-44 7 -38 24 -215 41 -441 11 -146 17 -350 18 -608 l1 -387 30 6 c236 51 921
287 1153 397 l47 22 12 170 c14 218 15 410 3 655 -13 265 -51 640 -64 640 -6
0 -31 -10 -56 -21z"/>
<path d="M4245 6436 c-54 -399 -90 -1072 -71 -1328 7 -87 10 -97 29 -102 14
-3 29 2 42 14 12 11 27 20 33 20 26 0 62 -33 62 -55 0 -21 11 -27 98 -54 258
-79 667 -179 922 -225 80 -15 155 -29 168 -31 l22 -5 0 239 0 239 -59 123
c-32 68 -151 309 -263 534 -113 226 -207 415 -209 422 -2 7 -105 41 -229 77
-124 36 -296 89 -382 119 l-157 54 -6 -41z"/>
<path d="M13238 6368 c-69 -94 -258 -292 -380 -399 l-106 -94 -6 -85 c-21
-289 -114 -773 -196 -1016 -17 -48 -28 -89 -25 -92 19 -20 595 554 595 594 0
3 11 55 26 116 35 154 79 404 103 588 23 170 45 423 39 440 -2 6 -24 -17 -50
-52z"/>
<path d="M9943 5518 c-183 -392 -352 -757 -377 -811 l-45 -97 42 6 c85 13 486
95 621 127 100 24 141 39 148 52 15 26 3 796 -16 1030 -15 184 -37 405 -40
405 -1 0 -151 -321 -333 -712z"/>
<path d="M2185 6129 c-20 -32 29 -583 78 -875 l24 -142 71 -83 c135 -161 322
-325 565 -497 115 -82 308 -204 313 -199 2 2 -14 59 -36 128 -21 69 -44 154
-51 188 -14 71 -47 111 -134 161 -28 16 -76 60 -109 99 -46 54 -67 71 -94 76
-28 5 -37 13 -49 45 -13 32 -24 43 -59 56 -37 14 -45 23 -60 65 -13 34 -29 57
-55 75 -27 19 -48 48 -77 109 -24 50 -51 90 -67 101 -22 14 -26 23 -22 48 3
24 -3 42 -27 76 -38 53 -56 110 -65 205 l-6 69 -39 9 -38 10 7 60 c6 60 6 62
-25 87 -31 25 -31 26 -22 83 7 44 6 57 -4 57 -7 0 -16 -5 -19 -11z"/>
<path d="M2360 6115 c6 -15 14 -35 20 -45 7 -13 5 -31 -5 -60 -14 -39 -13 -46
4 -85 12 -26 31 -50 48 -59 21 -10 39 -35 62 -85 37 -80 41 -132 17 -200 -9
-24 -16 -52 -16 -63 0 -30 36 -92 87 -151 29 -33 53 -73 62 -101 22 -74 50
-109 108 -129 47 -17 53 -23 73 -72 24 -59 29 -62 103 -71 l52 -6 -3 -47 c-4
-45 -2 -48 35 -73 46 -32 91 -53 98 -46 3 2 -4 47 -14 99 -11 52 -25 133 -31
182 -8 54 -17 87 -24 87 -7 0 -18 17 -25 38 -31 85 -83 124 -185 140 -77 12
-98 33 -94 94 3 45 0 50 -45 96 -47 48 -49 52 -59 132 -7 52 -7 98 -2 124 l9
41 -142 143 c-87 87 -139 132 -133 117z"/>
<path d="M12679 5817 c-142 -125 -517 -356 -829 -510 l-226 -112 -23 -180
c-39 -318 -136 -766 -215 -994 -14 -41 -26 -76 -26 -79 0 -12 432 222 581 315
145 89 386 258 503 350 79 63 245 769 271 1151 4 50 5 92 3 92 -2 -1 -19 -15
-39 -33z"/>
<path d="M3135 5423 c21 -134 10 -193 -35 -193 -10 0 -21 -4 -24 -8 -6 -10 27
-231 51 -344 11 -55 21 -79 33 -83 10 -3 25 -26 35 -51 18 -49 33 -58 106 -69
36 -5 49 -13 66 -40 18 -27 32 -35 74 -44 29 -7 78 -29 112 -51 l59 -40 -63 0
c-79 0 -115 -17 -111 -50 2 -23 0 -22 -37 14 -24 23 -44 55 -51 81 -11 39 -18
46 -64 66 -28 12 -64 32 -80 46 -16 13 -30 22 -32 21 -9 -10 92 -357 109 -375
21 -21 336 -183 517 -265 181 -83 383 -165 435 -178 17 -4 40 -10 52 -14 21
-7 21 -6 8 51 -7 31 -21 63 -31 70 -14 10 -15 15 -4 27 10 13 9 30 -4 88 -39
178 -104 727 -106 889 0 23 -8 29 -62 49 -35 13 -69 25 -75 27 -10 4 -13 -16
-13 -81 l0 -86 -40 20 c-27 14 -59 20 -107 20 -87 1 -160 26 -181 63 -15 24
-15 29 -2 37 21 14 67 12 130 -5 30 -8 56 -12 58 -10 3 3 7 26 10 53 l4 48
-152 69 c-167 75 -154 75 -191 7 -13 -24 -29 -32 -88 -47 -75 -20 -92 -35 -40
-35 l32 0 -6 -51 c-6 -45 -4 -50 11 -44 45 20 72 17 124 -15 66 -41 71 -48 51
-81 -14 -23 -14 -36 -5 -84 7 -32 9 -61 6 -66 -3 -5 -18 -9 -35 -9 l-29 0 0
69 0 70 -57 6 c-32 4 -65 7 -73 8 -11 2 -16 -10 -18 -40 -2 -24 -7 -43 -12
-43 -4 0 -22 19 -39 42 -24 33 -31 52 -31 88 0 45 -1 47 -45 69 -25 12 -45 27
-45 33 0 6 11 51 24 102 14 50 27 125 31 166 l6 75 -67 38 c-90 50 -98 49 -89
-10z m667 -953 c20 -17 73 -52 118 -79 l81 -49 -45 -15 c-25 -9 -62 -28 -83
-44 -49 -37 -128 -39 -190 -3 -24 13 -43 28 -43 34 0 5 14 24 31 42 l31 32
-16 55 c-9 30 -16 59 -16 65 0 19 94 -8 132 -38z"/>
<path d="M3428 5243 c7 -3 16 -2 19 1 4 3 -2 6 -13 5 -11 0 -14 -3 -6 -6z"/>
<path d="M11440 5118 c-370 -152 -605 -231 -1016 -343 l-60 -17 -17 -221 c-23
-293 -59 -560 -109 -787 -22 -102 -43 -196 -46 -209 -4 -18 -1 -23 9 -19 8 3
103 31 212 62 242 70 553 182 757 273 l152 68 30 80 c41 115 112 391 157 616
36 181 87 528 79 548 -2 5 -68 -18 -148 -51z"/>
<path d="M5583 4875 l2 -210 109 -17 c61 -10 111 -16 112 -15 1 1 -49 103
-112 227 l-113 225 2 -210z"/>
<path d="M4180 4953 c0 -141 68 -716 104 -873 l13 -55 75 -16 c41 -9 79 -19
85 -22 5 -3 22 -37 36 -74 21 -52 41 -83 86 -127 l58 -57 38 25 c27 19 51 26
84 26 62 0 91 -21 91 -65 0 -33 -1 -34 -42 -37 -39 -3 -33 -6 77 -37 66 -19
175 -49 243 -67 l122 -33 0 24 c0 14 8 38 19 56 48 78 91 67 110 -29 10 -54
15 -60 53 -82 37 -21 207 -64 216 -55 2 2 -7 85 -19 186 -29 222 -34 233 -151
285 -73 33 -82 35 -170 32 -119 -4 -124 -20 -18 -60 81 -32 103 -45 94 -60
-14 -22 -53 -26 -129 -11 -70 13 -86 20 -158 75 -53 41 -94 64 -121 69 -89 16
-121 41 -71 53 29 7 58 47 50 68 -4 9 -24 30 -47 48 -45 36 -77 98 -78 147 0
45 -26 56 -109 48 -57 -6 -69 -4 -83 12 -21 24 -62 148 -55 167 3 8 19 17 36
21 37 8 38 12 10 41 -11 12 -32 53 -46 90 l-24 69 21 17 c29 23 40 23 40 -3 0
-60 55 -94 175 -109 49 -6 91 -12 92 -14 2 -1 9 -20 16 -42 13 -36 18 -40 74
-55 44 -11 76 -28 115 -62 36 -31 84 -58 142 -80 67 -26 97 -44 126 -76 45
-49 110 -80 168 -81 l43 0 -7 168 c-3 92 -9 185 -13 206 l-6 40 -175 32 c-242
44 -685 150 -873 208 -44 14 -47 14 -38 -2 5 -9 12 -42 16 -72 3 -30 13 -69
20 -86 16 -34 10 -70 -12 -78 -22 -9 -43 12 -43 42 0 24 -1 24 -18 9 -25 -23
-29 -22 -36 13 -8 44 -34 50 -63 14 -26 -33 -29 -28 -9 21 14 33 14 35 -14 65
-15 16 -35 30 -44 30 -18 0 -20 17 -6 55 8 21 5 30 -17 55 -33 38 -53 39 -53
3z"/>
<path d="M4340 4916 c0 -22 17 -28 41 -16 24 13 23 15 -13 24 -21 5 -28 3 -28
-8z"/>
<path d="M10110 4699 c-113 -26 -295 -65 -405 -85 -110 -20 -200 -37 -201 -38
-15 -21 -593 -1280 -590 -1284 9 -9 462 56 681 97 116 22 278 56 360 75 83 20
160 38 173 41 30 7 34 19 82 242 47 218 84 482 105 738 17 201 19 265 8 264
-5 -1 -100 -23 -213 -50z m-472 -879 c24 -9 32 -19 32 -37 0 -23 -2 -24 -17
-12 -9 8 -36 14 -60 14 -59 1 -74 28 -40 73 8 10 14 9 31 -6 12 -10 36 -25 54
-32z"/>
<path d="M5585 4518 c12 -239 26 -442 31 -450 3 -4 18 -8 33 -8 34 0 49 -16
57 -61 9 -48 31 -69 71 -69 26 0 36 5 40 20 8 31 73 45 196 42 59 -1 107 -1
107 1 0 4 -290 600 -294 604 -1 1 -49 9 -106 18 -58 9 -113 19 -123 22 -18 5
-19 -2 -12 -119z"/>
<path d="M3290 4254 c0 -10 178 -455 188 -472 6 -9 16 -10 40 -1 29 10 36 8
88 -29 l57 -41 38 47 c34 43 41 47 80 47 39 0 46 4 76 45 18 25 44 56 57 70
l23 26 -131 59 c-72 32 -214 101 -316 154 -215 112 -200 105 -200 95z"/>
<path d="M5572 4115 c0 -16 2 -22 5 -12 2 9 2 23 0 30 -3 6 -5 -1 -5 -18z"/>
<path d="M5908 3958 c-36 -7 -68 -20 -89 -37 l-32 -27 62 -77 c69 -86 88 -98
181 -122 35 -9 82 -26 104 -37 41 -20 96 -66 96 -78 0 -4 -25 -10 -56 -13 -31
-3 -58 -8 -60 -10 -2 -2 1 -18 7 -36 6 -18 10 -34 7 -36 -2 -2 -41 25 -87 61
-67 51 -101 69 -165 89 -57 18 -104 41 -158 80 -43 30 -78 54 -78 52 0 -32 42
-313 47 -318 14 -12 549 -106 706 -124 58 -7 59 -6 52 16 -4 13 -72 153 -151
311 -133 265 -146 288 -164 278 -15 -8 -32 -4 -76 15 -61 27 -62 27 -146 13z"/>
<path d="M4325 3889 c11 -68 18 -76 44 -43 26 33 25 39 -18 66 l-33 21 7 -44z"/>
<path d="M4000 3910 c0 -5 34 -42 75 -82 42 -40 86 -90 97 -110 25 -43 26 -43
74 -23 l36 15 -42 50 c-23 27 -43 57 -44 67 -3 17 -196 99 -196 83z"/>
<path d="M11160 3822 c-205 -90 -508 -198 -765 -272 l-221 -63 -28 -106 c-66
-244 -243 -660 -345 -811 -17 -24 -29 -45 -28 -46 4 -4 252 53 392 90 139 36
530 160 550 174 43 29 234 324 351 544 93 173 255 544 242 553 -2 1 -68 -27
-148 -63z"/>
<path d="M4722 3621 c-9 -26 -7 -32 20 -57 16 -16 58 -67 93 -114 l63 -85 44
3 c37 3 50 -1 85 -30 22 -18 48 -47 57 -65 18 -37 68 -57 130 -51 36 3 42 8
63 48 l23 45 -19 75 c-11 41 -21 86 -23 99 -2 21 -12 27 -58 38 -30 8 -143 38
-251 68 -108 30 -200 55 -206 55 -6 0 -16 -13 -21 -29z"/>
<path d="M9965 3439 c-231 -55 -554 -114 -833 -152 l-243 -32 -95 -205 c-89
-190 -97 -213 -115 -320 -10 -63 -39 -175 -63 -247 -31 -93 -41 -133 -32 -133
8 0 119 11 247 25 250 26 465 57 725 105 89 17 163 30 166 30 3 0 26 31 51 69
109 164 260 510 336 773 33 111 36 129 24 127 -5 0 -80 -18 -168 -40z m-797
-734 c7 -14 12 -37 12 -50 0 -22 -2 -24 -26 -15 -14 6 -45 10 -69 10 -30 0
-45 5 -49 16 -9 23 23 45 57 39 19 -3 27 0 27 10 0 25 36 17 48 -10z"/>
<path d="M5516 3438 c44 -73 174 -207 174 -179 0 16 -30 155 -35 159 -4 4
-121 31 -138 32 -5 0 -5 -6 -1 -12z"/>
<path d="M5690 3403 c2 -33 40 -187 47 -192 6 -3 18 -40 28 -81 18 -79 83
-195 113 -204 10 -2 42 -8 72 -11 48 -7 66 -16 146 -79 53 -41 125 -111 168
-163 l76 -92 95 -31 c52 -17 95 -33 95 -34 0 -2 -7 -17 -16 -34 -8 -18 -14
-44 -12 -59 3 -27 6 -28 73 -36 163 -17 365 -33 363 -28 -2 4 -108 214 -235
467 l-232 462 -63 7 c-79 9 -448 69 -586 95 -113 22 -132 24 -132 13z"/>
<path d="M8590 2612 c-30 -64 -76 -152 -102 -195 l-47 -78 47 7 c26 3 50 9 53
13 20 20 122 371 107 371 -1 0 -28 -53 -58 -118z"/>
<path d="M12320 13053 c0 -4 9 -16 19 -27 20 -21 19 -21 -164 -219 -201 -216
-223 -251 -212 -332 10 -66 42 -123 112 -191 109 -107 199 -131 286 -75 24 15
87 73 139 127 271 282 255 267 297 260 l38 -6 -60 55 c-65 60 -85 70 -59 29
13 -19 15 -32 8 -50 -5 -13 -82 -103 -171 -198 -217 -232 -276 -263 -372 -191
-69 50 -101 123 -77 177 7 18 89 114 181 213 245 264 221 242 244 221 10 -9
22 -13 25 -8 5 9 -214 222 -228 222 -3 0 -6 -3 -6 -7z"/>
<path d="M2930 12987 c0 -19 -13 -29 -76 -57 -203 -89 -284 -298 -192 -497 34
-74 150 -185 221 -211 88 -33 184 -30 265 8 71 33 157 110 202 179 29 46 70
150 70 178 0 8 -23 39 -52 69 -47 50 -51 57 -39 76 7 11 11 22 9 23 -2 2 -53
-43 -113 -100 -61 -57 -106 -104 -101 -105 5 0 18 8 29 18 19 16 21 15 72 -41
84 -92 92 -133 40 -196 -52 -61 -122 -62 -207 -3 -56 39 -203 190 -261 269
-90 124 -97 193 -27 263 63 63 154 67 263 11 33 -17 62 -30 64 -28 5 6 -148
167 -158 167 -5 0 -9 -10 -9 -23z"/>
<path d="M13122 12228 c1 -7 -4 -37 -11 -66 -13 -52 -15 -54 -196 -202 -100
-82 -203 -163 -229 -181 l-46 -33 -31 23 c-48 36 -44 19 12 -50 29 -35 54 -66
56 -68 2 -2 6 -1 10 3 4 3 1 12 -5 18 -22 22 -13 53 26 90 52 50 364 300 368
295 2 -2 -39 -153 -92 -336 l-95 -333 36 -44 c20 -24 39 -44 42 -44 5 0 43 30
382 304 80 64 152 116 161 116 9 0 25 -9 35 -20 10 -11 22 -17 26 -14 5 3 -17
37 -48 76 -32 39 -59 65 -61 58 -2 -6 1 -17 7 -23 27 -27 11 -56 -71 -125
-159 -132 -272 -221 -275 -218 -2 2 33 131 77 287 45 156 82 291 83 299 0 9
-32 57 -73 108 -69 86 -94 109 -88 80z"/>
<path d="M2117 12159 c-62 -77 -71 -100 -29 -69 26 19 36 21 54 13 45 -20 353
-278 337 -281 -9 -2 -149 6 -310 17 -161 12 -296 17 -300 13 -3 -4 -39 -47
-79 -97 l-73 -90 72 -3 73 -3 186 -151 c103 -83 202 -165 220 -182 33 -30 41
-63 21 -83 -6 -6 -10 -16 -8 -22 2 -6 30 21 62 61 57 71 69 103 22 58 -23 -22
-27 -23 -55 -9 -44 21 -402 313 -389 318 6 2 162 -7 347 -19 l335 -23 38 44
c21 24 37 47 36 50 -1 4 -108 92 -237 197 -320 259 -306 244 -275 289 8 12 12
24 7 27 -4 2 -29 -22 -55 -55z"/>
<path d="M13825 11256 c9 -14 15 -30 13 -36 -2 -6 -134 -87 -293 -179 -281
-164 -291 -168 -307 -150 -9 11 -18 25 -21 32 -2 6 -7 9 -11 5 -4 -3 32 -75
80 -159 48 -84 89 -148 92 -141 2 6 -2 21 -8 33 -9 17 -9 24 2 34 7 7 141 86
297 176 224 128 285 159 292 148 21 -35 28 -43 33 -38 9 8 -157 292 -173 297
-9 3 -8 -3 4 -22z"/>
<path d="M1426 11175 c-42 -77 -46 -101 -10 -62 19 21 31 26 47 21 57 -18 406
-204 458 -245 75 -59 86 -136 34 -225 -19 -33 -39 -51 -70 -65 -39 -17 -45
-18 -86 -3 -24 8 -147 70 -274 138 -214 115 -230 126 -228 150 1 14 -1 26 -5
26 -11 0 -153 -272 -146 -279 5 -6 30 22 36 41 2 6 103 -43 223 -107 235 -125
280 -145 329 -145 39 0 101 28 144 64 45 39 108 149 127 223 34 133 -7 178
-301 336 -110 59 -209 116 -219 127 -10 11 -15 28 -12 40 12 45 -13 26 -47
-35z"/>
<path d="M14169 10582 c9 -16 -28 -53 -269 -267 -154 -136 -280 -252 -280
-256 0 -25 26 -59 44 -59 12 0 154 9 316 20 376 25 385 25 411 -1 32 -32 33
-16 4 60 -30 76 -47 91 -43 39 2 -26 -2 -34 -22 -44 -20 -10 -428 -45 -438
-38 -2 1 79 75 179 164 167 149 184 161 196 144 29 -40 20 -1 -30 124 -29 73
-58 132 -65 132 -9 0 -10 -5 -3 -18z"/>
<path d="M955 10168 c-54 -154 -105 -305 -105 -310 0 -21 19 -4 25 22 4 17 9
30 12 30 3 0 152 -50 330 -112 349 -120 327 -108 306 -165 -3 -7 -1 -13 4 -13
5 0 35 74 66 165 31 91 52 165 48 165 -5 0 -14 -13 -20 -30 -5 -16 -14 -30
-18 -30 -5 0 -151 49 -324 109 l-314 109 3 36 c3 35 -4 48 -13 24z"/>
<path d="M14544 9579 l6 -37 -331 -82 c-347 -87 -348 -87 -349 -37 0 9 -4 17
-10 17 -5 0 -10 -5 -10 -10 0 -11 140 -573 143 -577 6 -6 207 51 207 58 0 5
-23 9 -50 9 -66 0 -110 19 -147 65 -30 35 -60 112 -65 165 -3 24 2 26 162 67
91 22 166 40 168 38 1 -1 8 -30 14 -64 15 -77 -2 -119 -57 -145 -20 -10 -34
-20 -31 -23 8 -8 266 58 266 68 0 5 -11 7 -24 3 -14 -3 -41 -1 -61 6 -41 14
-74 68 -78 128 l-2 37 150 37 c110 26 152 33 157 25 12 -19 28 -105 28 -148 0
-63 -23 -105 -76 -139 -27 -16 -42 -30 -35 -30 23 0 156 32 164 39 9 9 -121
541 -136 556 -6 7 -7 -2 -3 -26z"/>
<path d="M700 9341 c0 -5 7 -11 15 -15 23 -8 18 -29 -16 -72 -52 -65 -72 -114
-73 -174 -1 -128 104 -220 251 -220 98 0 150 46 209 184 16 38 44 85 61 104
31 32 36 34 82 30 64 -6 105 -37 127 -94 15 -40 16 -53 5 -92 -25 -95 -87
-146 -203 -166 -82 -15 -81 -16 55 -50 94 -23 114 -22 82 4 -21 18 -19 24 21
79 96 134 97 268 4 362 -54 54 -118 79 -202 79 -107 0 -156 -43 -232 -203 -53
-111 -110 -142 -183 -97 -44 26 -56 54 -51 116 8 91 85 159 194 172 24 2 44 8
44 12 0 4 -39 17 -87 29 -100 24 -103 24 -103 12z"/>
<path d="M14768 8485 c3 -25 0 -35 -10 -35 -21 0 -575 -48 -630 -55 l-48 -6 0
36 c0 19 -4 35 -10 35 -13 0 -12 -35 4 -203 13 -132 26 -190 26 -114 0 42 -7
40 187 57 179 15 163 20 163 -50 0 -80 -16 -96 -107 -105 -161 -15 -221 -42
-243 -111 -22 -67 4 -159 52 -185 32 -17 33 -2 2 25 -41 35 -25 45 97 58 164
16 192 36 215 152 7 33 12 53 13 42 2 -30 52 -114 79 -132 39 -26 92 -35 137
-23 87 23 114 79 115 235 0 153 -24 414 -39 414 -4 0 -5 -16 -3 -35z m22 -290
c0 -86 -34 -115 -153 -130 -113 -14 -153 10 -167 101 -4 24 -6 44 -6 45 2 3
245 26 284 28 l42 1 0 -45z"/>
<path d="M530 8413 c0 -4 -7 -80 -15 -168 -18 -192 -17 -175 -5 -175 6 0 10
13 10 28 0 16 2 31 5 33 2 3 66 -1 142 -8 76 -6 147 -12 157 -13 18 0 19 -6
12 -96 -4 -53 -8 -100 -11 -103 -2 -4 -61 -1 -132 5 -70 7 -140 13 -155 13
-25 1 -28 4 -28 38 0 22 -4 33 -9 27 -12 -12 -39 -334 -29 -340 4 -3 8 5 8 18
1 53 -6 52 321 24 407 -35 376 -29 371 -72 -3 -21 0 -34 7 -34 6 0 11 8 11 18
0 20 17 209 25 280 3 24 0 42 -5 42 -6 0 -10 -11 -10 -24 0 -14 -3 -27 -7 -29
-5 -3 -73 1 -153 9 -80 7 -156 13 -169 14 l-23 0 7 98 c4 53 10 100 13 103 4
3 82 -1 175 -9 l167 -15 0 -34 c0 -19 4 -32 8 -29 10 6 38 333 29 342 -3 3 -9
-10 -12 -30 -9 -44 21 -44 -385 -7 l-305 27 2 31 c2 18 -2 35 -7 38 -6 3 -10
3 -10 -2z"/>
<path d="M14090 7351 c0 -6 7 -11 15 -11 28 0 26 -25 -6 -101 -59 -138 -41
-253 51 -332 90 -77 259 -78 334 -1 35 36 51 71 86 193 27 91 61 131 114 131
52 0 84 -16 106 -52 51 -84 -6 -207 -117 -253 -20 -8 -44 -15 -54 -15 -31 0
-22 -17 12 -24 17 -3 64 -6 103 -5 58 0 67 2 49 11 -30 14 -29 27 7 98 40 79
47 134 26 198 -47 140 -254 200 -366 105 -40 -33 -55 -63 -80 -160 -30 -111
-50 -152 -81 -169 -65 -33 -154 -1 -188 68 -11 24 -21 55 -21 69 0 95 74 184
178 213 34 9 62 21 62 27 0 5 -21 9 -47 9 -27 0 -78 3 -115 7 -48 4 -68 3 -68
-6z"/>
<path d="M777 7151 c-106 -35 -181 -103 -229 -207 -19 -40 -23 -66 -23 -139 1
-116 30 -181 113 -255 190 -170 497 -109 610 120 23 47 27 67 27 145 0 77 -4
98 -27 147 -33 71 -101 138 -175 175 -76 37 -208 43 -296 14z m418 -205 c65
-28 86 -119 39 -175 -31 -38 -111 -64 -256 -85 -317 -46 -420 -26 -435 81 -7
55 16 96 69 121 118 55 499 93 583 58z"/>
<path d="M13971 6310 c-34 -174 -36 -194 -21 -185 6 3 10 17 10 30 0 13 3 26
8 28 4 3 140 -21 302 -52 162 -32 312 -61 334 -65 36 -7 38 -9 34 -42 -2 -19
0 -34 4 -34 4 0 8 1 8 3 0 1 15 77 34 170 18 92 29 167 24 167 -5 0 -11 -13
-14 -30 -4 -16 -12 -30 -18 -30 -6 0 -159 28 -339 62 l-329 63 6 37 c4 21 2
38 -3 38 -5 0 -23 -72 -40 -160z"/>
<path d="M1358 6146 c-2 -22 -52 -60 -308 -234 -301 -205 -305 -208 -303 -241
0 -18 5 -37 10 -42 4 -4 172 -16 372 -26 359 -19 364 -19 382 -42 29 -35 33
-20 13 51 -20 73 -34 95 -34 52 0 -17 -5 -35 -12 -42 -13 -13 -86 -15 -157 -4
l-44 7 -22 83 -22 82 61 43 c34 24 76 54 94 66 l33 23 6 -21 c3 -11 10 -21 15
-21 5 0 7 8 4 18 -2 9 -19 71 -36 137 -34 127 -46 154 -52 111z m-119 -451
c11 -38 19 -71 17 -72 -1 -2 -58 1 -127 5 l-124 7 105 72 c58 40 106 70 107
65 2 -4 12 -38 22 -77z"/>
<path d="M13737 5487 c-30 -89 -52 -166 -49 -171 3 -6 11 6 18 25 7 20 17 33
25 31 21 -4 633 -215 639 -219 12 -10 -41 -80 -76 -101 -31 -18 -52 -22 -107
-21 -37 1 -69 0 -72 -3 -3 -3 41 -22 97 -42 56 -20 105 -33 108 -29 8 9 200
565 200 579 0 12 -184 78 -201 72 -7 -2 9 -16 34 -31 68 -40 97 -88 97 -159 0
-31 -3 -59 -7 -61 -7 -4 -640 209 -652 219 -2 2 1 17 7 33 6 17 7 33 2 36 -4
3 -33 -68 -63 -158z"/>
<path d="M1623 5303 c2 -10 6 -23 8 -30 6 -16 -312 -463 -329 -463 -7 0 -64
24 -125 53 -87 41 -121 64 -151 98 -33 39 -37 41 -32 18 7 -33 83 -199 91
-199 3 0 4 13 3 28 -2 30 7 52 23 52 12 0 371 -152 367 -155 -6 -6 -279 -125
-286 -125 -4 0 -13 15 -21 33 -7 17 -15 27 -18 20 -5 -14 124 -310 140 -320 6
-4 8 1 4 13 -20 64 -42 49 291 197 170 75 311 137 314 137 3 0 11 -13 18 -30
12 -28 38 -45 27 -17 -36 93 -142 315 -148 311 -5 -3 -2 -19 7 -35 8 -17 14
-32 12 -34 -11 -9 -304 -135 -315 -135 -14 0 -9 7 136 199 l94 124 15 -29 c8
-16 17 -24 19 -17 5 15 -129 323 -141 323 -4 0 -6 -8 -3 -17z"/>
<path d="M13383 4669 c-87 -162 -113 -218 -104 -223 5 -3 14 8 21 24 7 17 16
30 21 30 5 0 72 -31 149 -70 l140 -70 87 -111 c119 -150 143 -187 143 -221 0
-46 17 -33 55 42 25 50 31 70 21 70 -8 0 -16 -7 -20 -15 -6 -16 -43 -20 -62
-7 -13 9 -184 225 -181 229 2 1 81 -1 176 -4 161 -6 172 -7 168 -25 -3 -10 -1
-18 3 -18 11 0 142 251 134 259 -3 3 -11 -1 -17 -9 -10 -13 -43 -14 -227 -9
l-215 6 -132 69 -131 69 15 28 c8 16 13 33 11 39 -3 7 -27 -31 -55 -83z"/>
<path d="M10252 1794 c-71 -49 -345 -553 -346 -637 -2 -69 18 -66 302 50 9 4
12 -20 12 -100 0 -58 4 -109 10 -112 14 -8 86 31 104 57 12 17 16 48 16 119
l0 97 54 26 c53 26 116 93 116 123 0 18 -9 17 -71 -11 -107 -47 -96 -65 -101
163 -4 177 -6 203 -23 221 -22 24 -43 25 -73 4z m-32 -302 l0 -177 -72 -28
c-82 -31 -116 -34 -125 -12 -15 42 156 395 192 395 3 0 5 -80 5 -178z"/>
<path d="M10843 1748 c-97 -26 -97 -165 0 -197 46 -15 88 -1 115 40 57 84 -16
184 -115 157z"/>
<path d="M4593 1710 c-34 -14 -57 -58 -56 -103 4 -85 89 -124 164 -74 43 29
53 71 29 124 -24 55 -80 76 -137 53z"/>
<path d="M5720 1589 c-19 -4 -87 -11 -150 -15 -101 -6 -117 -10 -137 -30 -52
-52 -23 -61 108 -35 56 12 104 20 105 18 2 -1 -63 -59 -144 -127 -200 -171
-365 -333 -360 -356 2 -13 22 -23 73 -36 39 -10 75 -16 81 -14 7 3 40 46 74
96 71 102 154 201 313 372 123 133 128 150 37 127z"/>
<path d="M8835 1325 c-33 -7 -102 -18 -154 -24 -52 -6 -97 -14 -101 -18 -4 -4
-29 -72 -56 -150 -38 -111 -47 -146 -38 -160 6 -9 39 -26 75 -38 77 -25 97
-36 126 -67 35 -37 45 -74 32 -121 -33 -124 -175 -184 -290 -124 -57 30 -71
59 -57 115 12 46 8 58 -17 48 -40 -15 -60 -141 -29 -185 22 -31 90 -61 140
-61 97 0 201 50 291 142 72 74 98 128 98 205 0 55 -3 65 -29 92 -40 42 -86 55
-188 53 -48 0 -90 3 -93 9 -10 15 24 116 41 123 9 3 31 6 49 6 59 0 187 29
208 47 17 16 67 103 67 118 0 6 -1 6 -75 -10z"/>
<path d="M6958 1300 c-71 -21 -164 -107 -199 -183 -23 -52 -24 -128 -3 -173
26 -54 76 -79 159 -79 60 0 81 5 148 37 42 20 77 33 77 29 0 -20 -64 -93 -114
-131 -70 -53 -142 -80 -211 -80 -88 0 -130 -33 -104 -82 32 -60 132 -64 245
-8 98 47 218 169 268 270 105 215 20 411 -179 409 -33 0 -72 -4 -87 -9z m159
-47 c50 -23 73 -66 73 -133 0 -108 -76 -183 -184 -183 -95 0 -146 44 -146 126
0 59 18 102 61 146 61 61 129 76 196 44z"/>
</g>
</svg>
